<?xml version="1.0" encoding="UTF-8"?>
<!-- Generated from Natural Earth public-domain land data: https://d2ad6b4ur7yvpq.cloudfront.net/naturalearth-3.3.0/ne_110m_land.geojson -->
<!-- Projection: Web Mercator / EPSG:3857-compatible extent [-180, 180] x [-85.05112878, 85.05112878] -->
<!-- Generated at: 2026-05-13T00:52:44Z -->
<svg xmlns="http://www.w3.org/2000/svg" width="1440" height="720" viewBox="0 0 1440 720" role="img" aria-labelledby="title desc">
  <title id="title">Footprint branded world basemap</title>
  <desc id="desc">Minimal world basemap with muted land areas and subtle continent labels for the footprint page.</desc>
  <defs>
    <filter id="soft-shadow" x="-10%" y="-10%" width="120%" height="120%">
      <feDropShadow dx="0" dy="10" stdDeviation="12" flood-color="#9cb4c0" flood-opacity="0.10"/>
    </filter>
  </defs>
  <style>
    .ocean { fill: #f4f9fb; }
    .land { fill: #dce6eb; stroke: #b9cbd4; stroke-width: 1.2; stroke-linejoin: round; filter: url(#soft-shadow); }
    .region-label {
      fill: #8ca0ad;
      font-family: Raleway, Arial, sans-serif;
      font-size: 24px;
      font-weight: 600;
      letter-spacing: 0.06em;
      opacity: 0.72;
      text-anchor: middle;
      pointer-events: none;
      user-select: none;
    }
  </style>
  <rect class="ocean" x="0" y="0" width="1440" height="720" rx="0" ry="0"/>
  <path class="land" fill-rule="evenodd" d="M 65.15 624.03 L 67.58 620.32 L 75.02 621.87 L 82.07 628.68 L 83.17 633.52 L 75.49 635.03 L 70.24 631.18 L 65.15 624.03 Z M 229.51 582.40 L 230.38 580.06 L 240.32 582.40 L 245.10 581.15 L 242.83 583.66 L 239.07 585.50 L 233.51 584.93 L 229.51 582.40 Z M 217.76 581.15 L 223.87 583.94 L 216.35 582.96 L 210.87 581.02 L 213.77 579.51 L 217.76 581.15 Z M 316.87 574.45 L 312.79 573.16 L 310.68 570.48 L 313.18 569.35 L 328.46 571.62 L 332.85 570.86 L 335.20 574.58 L 316.87 574.45 Z M 0.83 392.47 L 0.33 393.47 L 0.00 393.58 L 0.00 392.56 L 0.83 392.47 Z M 377.69 168.04 L 377.91 161.82 L 389.51 163.12 L 394.88 165.94 L 395.12 168.70 L 392.14 171.60 L 394.96 174.44 L 394.45 176.96 L 386.62 180.51 L 381.06 181.28 L 376.92 179.77 L 375.73 182.27 L 370.71 188.43 L 366.07 191.57 L 360.34 191.87 L 357.18 193.78 L 356.92 196.68 L 352.27 197.23 L 347.37 200.73 L 343.03 205.44 L 341.48 208.65 L 341.26 213.23 L 347.14 213.87 L 350.81 220.26 L 356.41 219.53 L 363.84 221.12 L 367.84 222.51 L 370.70 224.21 L 379.95 226.68 L 390.91 227.22 L 390.26 230.21 L 391.50 233.62 L 394.40 237.31 L 400.35 240.38 L 403.43 239.33 L 405.59 235.99 L 403.50 230.70 L 400.68 228.89 L 407.09 227.26 L 411.62 224.78 L 413.83 222.28 L 413.51 219.83 L 410.79 216.66 L 405.93 213.78 L 410.65 209.68 L 408.91 206.02 L 407.57 199.46 L 410.36 198.47 L 421.33 200.06 L 424.64 198.93 L 433.29 202.84 L 434.51 204.46 L 441.64 204.77 L 441.52 208.20 L 442.85 213.19 L 446.50 213.80 L 449.40 216.05 L 455.19 213.93 L 459.02 209.60 L 461.67 207.74 L 474.41 220.70 L 472.81 222.98 L 478.13 225.00 L 481.72 227.02 L 488.10 227.92 L 490.67 229.03 L 492.25 231.92 L 495.37 232.37 L 496.97 233.64 L 497.27 237.35 L 491.49 239.70 L 484.90 240.84 L 479.87 243.43 L 473.11 243.93 L 464.55 243.28 L 454.40 243.47 L 451.05 245.70 L 445.96 247.06 L 435.58 253.76 L 438.98 253.28 L 445.40 249.38 L 453.79 246.86 L 459.78 246.55 L 463.32 248.05 L 459.54 250.07 L 462.11 255.46 L 467.31 256.90 L 473.92 256.48 L 477.93 253.22 L 478.21 255.33 L 480.79 256.38 L 475.84 258.25 L 463.01 261.07 L 458.54 263.07 L 455.51 262.86 L 455.35 260.51 L 462.30 258.17 L 451.45 258.61 L 452.14 259.54 L 439.54 262.68 L 437.24 264.48 L 436.70 266.37 L 438.02 267.80 L 439.68 267.87 L 439.26 266.89 L 440.46 267.48 L 440.14 268.25 L 428.49 269.36 L 425.16 270.13 L 431.04 269.63 L 432.22 270.13 L 426.62 270.92 L 424.07 270.93 L 424.19 270.61 L 422.97 271.34 L 424.15 271.46 L 423.29 273.33 L 420.38 275.32 L 420.08 274.66 L 417.89 273.88 L 418.72 275.27 L 419.67 275.73 L 419.77 276.70 L 416.24 279.70 L 417.11 277.88 L 415.07 276.91 L 414.60 274.78 L 413.83 275.89 L 414.68 277.51 L 412.16 277.13 L 414.79 277.93 L 414.97 280.33 L 416.11 280.50 L 417.09 283.84 L 414.55 285.66 L 410.41 286.38 L 407.78 287.80 L 405.78 287.95 L 403.76 288.83 L 403.19 289.64 L 398.79 291.18 L 394.65 293.70 L 394.04 295.36 L 394.75 296.97 L 397.86 300.56 L 397.88 301.54 L 399.77 304.15 L 399.47 306.52 L 398.48 307.88 L 397.28 308.16 L 395.31 307.89 L 394.68 306.92 L 393.16 306.41 L 388.58 301.89 L 389.40 300.38 L 388.28 299.12 L 385.16 297.20 L 383.60 296.85 L 379.56 297.89 L 376.91 296.70 L 374.40 296.13 L 363.28 296.32 L 361.58 296.65 L 362.35 297.30 L 362.28 298.23 L 363.13 298.69 L 362.37 298.99 L 360.88 298.65 L 359.38 299.08 L 356.48 299.01 L 353.49 297.80 L 350.00 298.09 L 347.09 297.55 L 344.61 297.71 L 341.24 298.25 L 337.60 299.95 L 333.62 300.93 L 331.44 302.01 L 330.52 303.03 L 330.68 305.65 L 331.45 306.41 L 329.19 309.93 L 328.51 313.92 L 331.24 317.81 L 333.90 319.39 L 336.40 321.65 L 340.64 322.21 L 342.30 323.09 L 354.37 321.55 L 356.91 320.68 L 358.89 317.03 L 365.82 315.97 L 371.79 315.86 L 372.75 316.32 L 372.62 317.35 L 370.47 318.62 L 369.52 319.91 L 370.25 320.28 L 368.65 322.85 L 367.64 322.30 L 366.80 322.34 L 366.81 322.65 L 367.57 322.66 L 366.58 326.47 L 364.28 327.81 L 367.52 328.22 L 368.39 327.86 L 372.39 328.08 L 375.99 327.56 L 378.22 327.81 L 380.07 327.58 L 382.53 327.92 L 386.36 329.09 L 387.41 329.66 L 386.86 330.32 L 387.27 331.08 L 385.92 332.61 L 386.11 334.96 L 385.50 335.17 L 384.76 337.65 L 386.39 339.09 L 391.25 341.51 L 391.17 341.93 L 393.14 341.86 L 394.24 342.36 L 396.21 342.21 L 401.71 340.69 L 406.00 341.07 L 410.59 342.59 L 412.65 342.66 L 415.65 341.24 L 417.30 341.03 L 418.08 338.64 L 420.37 337.69 L 422.89 337.66 L 423.21 337.23 L 426.34 337.40 L 431.05 335.91 L 432.98 334.93 L 434.40 335.05 L 435.45 335.59 L 434.56 336.76 L 432.21 337.00 L 433.52 337.93 L 433.47 338.99 L 431.70 340.17 L 433.22 341.78 L 434.94 341.65 L 435.84 340.18 L 434.60 339.47 L 434.40 337.93 L 439.38 337.10 L 438.82 336.14 L 440.23 335.49 L 441.66 336.93 L 444.47 336.96 L 447.07 338.10 L 447.22 338.77 L 455.09 338.58 L 457.38 339.49 L 460.44 339.74 L 462.68 339.11 L 462.73 338.59 L 472.48 338.44 L 469.08 339.04 L 470.45 340.00 L 473.65 340.16 L 476.68 341.15 L 477.32 342.77 L 479.40 342.73 L 483.59 343.95 L 486.07 345.26 L 486.18 346.30 L 487.69 346.35 L 491.41 348.03 L 496.20 348.43 L 496.63 348.07 L 499.87 347.93 L 504.17 348.47 L 508.47 349.16 L 512.71 350.86 L 513.37 351.68 L 514.73 351.59 L 517.96 356.20 L 520.10 356.53 L 520.21 357.91 L 517.20 359.55 L 518.45 360.16 L 525.52 360.47 L 525.66 362.48 L 528.70 361.16 L 540.38 363.10 L 542.33 364.28 L 541.67 365.38 L 546.33 364.77 L 554.11 365.83 L 560.09 365.75 L 566.00 367.41 L 571.11 369.65 L 574.19 370.23 L 577.61 370.31 L 579.06 370.95 L 581.08 374.73 L 579.49 378.07 L 571.81 382.22 L 569.27 384.53 L 566.30 386.30 L 565.30 386.34 L 564.19 387.86 L 564.47 391.73 L 562.93 396.33 L 561.67 397.16 L 560.96 399.99 L 556.90 402.77 L 556.22 404.99 L 552.98 405.92 L 552.05 407.22 L 547.70 407.22 L 541.41 408.05 L 538.59 409.02 L 534.11 409.66 L 529.40 411.41 L 526.02 413.61 L 525.44 415.27 L 526.10 416.51 L 524.45 419.90 L 521.65 421.16 L 517.21 425.23 L 510.98 428.19 L 509.15 430.45 L 506.51 431.82 L 504.77 433.34 L 500.26 434.69 L 497.30 434.21 L 495.14 434.47 L 491.44 433.42 L 488.73 433.50 L 486.29 432.16 L 486.02 433.43 L 491.10 435.51 L 490.55 437.21 L 493.05 438.29 L 492.85 439.51 L 489.00 442.74 L 483.07 444.11 L 475.05 444.65 L 470.66 444.39 L 471.50 445.93 L 470.68 447.87 L 471.42 449.20 L 469.02 450.13 L 464.92 450.50 L 461.07 449.53 L 459.53 450.22 L 460.09 452.88 L 462.79 453.69 L 464.98 452.84 L 466.17 454.25 L 462.48 455.09 L 459.27 456.80 L 458.68 459.59 L 457.74 461.10 L 453.96 461.11 L 450.82 462.57 L 449.68 464.72 L 453.61 466.86 L 457.44 467.45 L 456.06 470.12 L 451.34 471.82 L 448.74 475.41 L 445.09 476.64 L 443.45 478.11 L 444.74 481.43 L 447.40 483.31 L 442.15 483.12 L 436.62 485.12 L 435.97 488.25 L 434.28 488.33 L 429.77 487.24 L 420.21 483.03 L 418.96 480.97 L 420.09 479.10 L 418.08 477.00 L 417.57 471.74 L 419.27 468.86 L 423.49 466.58 L 417.42 465.73 L 421.23 463.17 L 422.59 458.48 L 427.04 459.46 L 429.13 453.76 L 426.44 453.04 L 425.19 456.44 L 422.67 456.05 L 425.29 447.27 L 427.13 445.50 L 425.98 442.99 L 425.65 440.15 L 427.33 440.06 L 432.55 432.16 L 434.25 428.60 L 433.33 425.08 L 434.52 423.17 L 434.04 420.33 L 436.38 417.56 L 439.64 403.82 L 439.34 400.32 L 438.51 397.34 L 434.50 396.13 L 434.15 395.27 L 426.22 393.17 L 415.96 389.62 L 414.31 387.92 L 414.96 387.33 L 411.58 384.63 L 400.96 374.43 L 395.00 372.30 L 396.29 371.40 L 394.36 369.48 L 395.60 368.08 L 398.79 366.81 L 400.92 365.32 L 400.05 364.44 L 398.53 365.37 L 396.13 364.49 L 396.94 363.93 L 396.27 362.11 L 397.67 361.81 L 399.92 359.28 L 399.64 358.46 L 404.58 357.24 L 404.04 356.62 L 405.53 356.47 L 405.35 355.46 L 406.29 354.74 L 408.27 354.60 L 411.49 352.29 L 410.01 351.82 L 410.77 350.65 L 409.87 348.82 L 410.72 348.29 L 410.09 346.59 L 407.14 344.93 L 406.28 343.84 L 407.27 343.30 L 403.52 341.93 L 401.77 342.06 L 400.96 342.77 L 398.47 343.34 L 398.08 343.77 L 399.99 344.86 L 398.32 345.42 L 396.45 345.52 L 395.76 344.32 L 395.24 344.66 L 393.92 344.54 L 393.11 343.73 L 388.72 343.36 L 388.60 343.80 L 385.97 343.04 L 385.15 342.62 L 385.47 341.82 L 381.41 340.68 L 381.15 340.08 L 380.10 339.72 L 380.35 340.31 L 379.56 340.80 L 377.36 340.03 L 376.81 339.62 L 377.36 338.36 L 376.23 338.08 L 377.15 337.68 L 369.33 333.96 L 369.77 333.64 L 370.73 333.81 L 370.04 333.16 L 368.83 332.98 L 368.38 333.47 L 366.07 333.44 L 360.75 332.70 L 357.57 331.90 L 355.07 331.87 L 351.09 330.61 L 346.56 328.38 L 341.23 327.16 L 333.77 328.30 L 316.68 325.13 L 312.33 323.57 L 306.00 322.78 L 304.33 321.81 L 300.03 320.61 L 298.03 319.28 L 297.07 318.24 L 298.41 318.03 L 298.00 317.42 L 298.92 316.86 L 298.94 316.12 L 295.89 313.20 L 286.39 307.95 L 282.96 307.05 L 282.22 306.51 L 282.83 305.13 L 278.43 303.52 L 277.44 301.95 L 275.28 301.76 L 271.09 299.46 L 270.91 298.74 L 267.34 295.23 L 267.41 294.33 L 264.51 293.40 L 263.18 293.51 L 260.89 292.86 L 260.25 293.81 L 261.30 296.68 L 266.91 299.91 L 267.44 300.69 L 268.15 300.66 L 268.95 302.13 L 273.53 304.64 L 274.86 306.71 L 277.16 308.72 L 277.38 309.88 L 279.31 309.95 L 282.36 311.92 L 282.27 312.31 L 279.87 313.10 L 278.82 311.77 L 271.27 308.91 L 271.40 307.29 L 270.80 306.09 L 266.14 304.40 L 265.61 304.69 L 262.14 303.56 L 259.78 302.26 L 261.72 302.21 L 263.20 301.37 L 263.35 300.34 L 260.27 298.71 L 257.93 298.08 L 253.11 293.24 L 250.82 289.91 L 248.22 288.53 L 246.36 288.24 L 245.92 287.55 L 243.68 287.43 L 242.24 286.77 L 238.53 286.54 L 237.51 286.14 L 237.02 284.81 L 233.14 282.33 L 229.81 278.86 L 229.95 278.27 L 225.09 275.29 L 224.54 273.18 L 222.41 271.76 L 223.28 269.57 L 223.15 267.28 L 221.87 265.20 L 223.43 262.61 L 224.40 257.51 L 223.68 253.64 L 221.25 249.73 L 221.74 249.14 L 227.52 250.16 L 229.65 252.96 L 230.64 252.18 L 228.64 247.26 L 217.50 242.88 L 210.26 241.58 L 208.03 238.75 L 208.60 236.75 L 203.48 235.35 L 202.78 232.66 L 197.94 230.20 L 197.86 228.42 L 192.13 225.99 L 191.00 222.87 L 185.84 219.92 L 183.69 216.39 L 173.49 216.05 L 168.80 214.96 L 160.53 210.92 L 149.70 208.75 L 144.16 209.09 L 131.54 205.50 L 127.10 206.37 L 127.93 209.17 L 121.09 210.26 L 113.13 212.42 L 112.56 210.10 L 114.36 206.15 L 118.61 204.89 L 117.52 203.85 L 112.42 206.15 L 109.69 208.84 L 103.92 211.66 L 106.85 213.55 L 103.07 216.30 L 94.77 219.02 L 93.78 220.65 L 87.53 222.53 L 86.27 224.22 L 81.59 225.74 L 78.84 225.47 L 67.72 228.81 L 60.86 229.80 L 60.23 229.22 L 72.78 224.58 L 77.75 224.17 L 79.72 222.70 L 89.11 218.47 L 89.80 215.61 L 91.83 213.34 L 87.22 214.51 L 85.93 213.85 L 83.77 215.25 L 81.15 213.29 L 80.08 214.68 L 78.58 212.75 L 74.58 214.30 L 72.12 214.30 L 71.78 211.99 L 72.50 210.54 L 69.93 209.13 L 64.73 209.89 L 58.61 207.04 L 58.60 204.72 L 55.51 202.95 L 57.06 200.51 L 60.32 198.11 L 61.75 195.86 L 64.99 195.53 L 67.73 196.24 L 70.96 194.09 L 73.86 194.48 L 76.91 193.08 L 76.17 191.00 L 73.93 190.17 L 76.89 188.37 L 70.19 189.44 L 68.97 190.46 L 65.81 189.44 L 60.16 189.96 L 54.30 188.85 L 52.62 186.95 L 47.56 184.16 L 62.10 179.68 L 65.39 179.68 L 64.85 182.17 L 73.29 181.98 L 70.04 178.88 L 65.12 176.94 L 58.44 172.08 L 52.94 170.37 L 55.18 167.50 L 62.28 167.32 L 67.33 164.76 L 68.28 161.96 L 72.36 159.17 L 83.84 155.81 L 87.52 156.22 L 93.68 152.92 L 99.73 154.23 L 102.62 156.99 L 104.40 155.82 L 111.16 156.18 L 110.92 157.58 L 117.04 158.59 L 121.12 158.00 L 140.32 161.19 L 145.64 160.24 L 163.52 164.19 L 169.81 166.90 L 173.99 167.42 L 177.50 165.08 L 182.34 163.30 L 188.28 164.00 L 194.27 161.46 L 200.82 160.00 L 203.57 162.42 L 206.55 161.06 L 207.45 158.27 L 210.21 158.91 L 216.97 164.14 L 222.30 160.21 L 222.84 164.60 L 227.76 163.66 L 229.27 161.98 L 234.11 162.31 L 240.23 164.72 L 249.59 166.79 L 255.09 167.73 L 259.01 167.37 L 264.41 170.16 L 258.78 172.82 L 266.01 173.96 L 276.81 173.34 L 280.22 172.41 L 284.48 175.56 L 288.83 172.91 L 284.75 170.63 L 287.33 168.76 L 295.40 167.96 L 298.63 169.27 L 302.65 172.21 L 307.12 171.78 L 314.18 174.18 L 326.23 173.47 L 325.77 170.13 L 329.32 169.18 L 335.52 171.02 L 335.50 176.02 L 338.04 171.82 L 341.26 171.96 L 343.07 166.46 L 338.78 162.96 L 334.11 160.61 L 334.44 153.94 L 339.16 149.35 L 344.44 150.38 L 348.49 153.17 L 353.92 160.01 L 350.37 162.88 L 357.81 164.04 L 357.79 169.74 L 363.14 165.40 L 367.92 168.98 L 366.73 172.98 L 370.60 176.51 L 374.78 172.72 L 377.69 168.04 Z M 96.32 318.79 L 96.86 318.63 L 99.10 319.18 L 100.67 320.32 L 97.25 321.46 L 96.25 321.16 L 95.71 319.79 L 96.60 319.21 L 96.32 318.79 Z M 96.02 317.53 L 94.34 317.94 L 93.16 317.18 L 93.55 317.00 L 96.02 317.53 Z M 91.00 316.56 L 92.97 316.65 L 92.84 316.88 L 90.70 316.82 L 91.00 316.56 Z M 88.23 315.63 L 89.39 316.34 L 89.17 316.46 L 87.49 316.36 L 86.83 315.78 L 88.23 315.63 Z M 82.15 315.13 L 80.80 314.74 L 82.54 314.41 L 82.15 315.13 Z M 206.22 242.50 L 206.57 241.77 L 216.98 243.26 L 220.32 245.81 L 224.31 247.07 L 225.96 248.75 L 223.95 249.17 L 217.38 247.80 L 216.18 246.71 L 212.60 245.64 L 211.88 244.76 L 207.76 244.20 L 206.22 242.50 Z M 187.78 233.17 L 187.04 231.68 L 187.28 230.60 L 189.16 231.04 L 193.00 230.77 L 191.80 234.59 L 195.28 237.24 L 193.69 237.23 L 187.78 233.17 Z M 189.16 231.04 L 189.16 231.04 L 189.16 231.04 L 189.16 231.04 Z M 111.44 218.39 L 103.98 221.55 L 101.93 220.61 L 101.32 218.88 L 107.09 216.97 L 109.74 217.23 L 111.44 218.39 Z M 55.23 210.07 L 52.61 209.32 L 50.18 208.23 L 54.13 207.54 L 57.30 207.91 L 57.68 209.45 L 55.23 210.07 Z M 38.84 195.64 L 37.31 194.84 L 32.84 194.70 L 33.07 193.01 L 35.54 193.87 L 38.04 193.40 L 45.24 195.18 L 41.88 196.60 L 38.84 195.64 Z M 29.78 189.90 L 28.18 190.86 L 24.43 190.72 L 21.38 189.11 L 16.07 187.74 L 15.17 185.67 L 11.11 184.89 L 6.56 185.51 L 4.39 183.82 L 5.26 182.00 L 0.46 183.16 L 2.27 185.45 L 0.00 187.47 L 0.00 167.05 L 20.29 176.47 L 19.94 179.64 L 22.64 180.89 L 21.71 177.21 L 32.57 177.98 L 40.40 182.66 L 36.44 184.78 L 29.88 185.28 L 29.78 189.90 Z M 331.37 161.95 L 333.77 162.99 L 337.41 166.25 L 334.92 168.20 L 329.53 166.51 L 326.27 167.12 L 320.81 164.59 L 327.13 160.29 L 331.37 161.95 Z M 289.26 148.41 L 286.41 141.57 L 289.93 140.56 L 293.91 141.66 L 298.39 144.40 L 302.14 155.19 L 316.08 160.99 L 315.64 163.54 L 309.08 164.00 L 311.63 166.18 L 310.28 168.22 L 296.16 165.84 L 284.00 168.07 L 266.75 169.41 L 264.58 166.81 L 259.12 165.28 L 255.57 165.91 L 250.64 161.37 L 270.34 158.97 L 262.60 157.58 L 248.38 157.93 L 246.27 155.70 L 255.55 153.23 L 249.38 153.32 L 242.39 151.66 L 248.53 144.18 L 259.24 140.01 L 263.33 141.35 L 261.33 144.54 L 270.24 142.49 L 275.80 145.89 L 280.32 142.45 L 283.97 144.67 L 287.25 151.08 L 289.26 148.41 Z M 5.22 155.80 L 0.00 156.17 L 0.00 151.93 L 3.90 151.68 L 9.69 153.48 L 9.35 154.32 L 5.22 155.80 Z M 326.56 153.46 L 322.71 152.93 L 319.94 150.52 L 310.00 145.49 L 310.08 143.34 L 318.25 144.18 L 313.84 139.70 L 318.57 136.27 L 323.34 137.77 L 330.48 136.87 L 331.52 138.93 L 327.79 142.25 L 333.84 145.16 L 333.12 151.02 L 326.56 153.46 Z M 220.33 133.00 L 233.85 131.84 L 239.56 133.38 L 249.78 133.79 L 257.96 138.89 L 243.12 145.43 L 238.16 150.00 L 238.16 152.66 L 227.63 155.75 L 225.52 153.04 L 216.28 149.69 L 224.24 137.44 L 220.33 133.00 Z M 292.24 139.00 L 293.60 138.01 L 298.96 137.73 L 302.00 139.28 L 298.48 143.82 L 292.24 139.00 Z M 345.55 127.81 L 343.37 130.76 L 337.57 130.20 L 332.72 128.21 L 334.85 124.70 L 340.60 122.55 L 344.09 125.34 L 345.55 127.81 Z M 271.11 132.08 L 265.02 132.25 L 264.51 129.80 L 272.82 126.39 L 254.75 127.32 L 249.16 125.93 L 254.62 118.01 L 258.38 115.64 L 269.64 118.49 L 276.74 123.33 L 283.73 123.94 L 278.01 116.06 L 281.68 112.91 L 285.81 113.92 L 288.72 120.93 L 292.28 119.56 L 296.48 119.92 L 297.18 123.89 L 294.75 127.61 L 281.20 128.81 L 271.11 132.08 Z M 309.99 123.22 L 309.74 116.85 L 314.04 117.11 L 320.07 114.20 L 325.69 114.70 L 326.00 113.56 L 329.06 117.52 L 329.18 121.77 L 327.36 127.66 L 320.77 128.45 L 316.47 127.21 L 316.55 122.60 L 309.99 123.22 Z M 228.58 118.70 L 235.37 112.29 L 243.58 106.45 L 255.21 105.21 L 254.66 112.18 L 251.58 115.20 L 234.00 120.49 L 228.58 118.70 Z M 342.82 106.64 L 335.32 106.05 L 334.25 103.43 L 342.31 103.57 L 345.12 105.31 L 342.82 106.64 Z M 271.80 107.40 L 265.86 104.40 L 269.10 101.36 L 274.94 100.37 L 280.58 101.88 L 279.25 104.73 L 271.80 107.40 Z M 337.76 97.75 L 336.68 101.30 L 330.76 103.28 L 327.50 101.05 L 325.79 97.36 L 325.47 93.14 L 332.98 94.24 L 337.76 97.75 Z M 298.03 88.61 L 316.70 93.88 L 321.32 102.73 L 314.78 101.67 L 308.20 98.50 L 299.30 98.13 L 303.16 95.14 L 298.32 92.66 L 298.03 88.61 Z M 276.47 97.87 L 269.83 97.86 L 269.90 96.43 L 274.00 93.37 L 281.35 95.91 L 276.47 97.87 Z M 454.84 642.16 L 472.47 643.79 L 477.56 634.97 L 481.71 639.64 L 479.36 651.31 L 462.05 650.31 L 457.03 646.16 L 454.84 642.16 Z M 526.45 649.14 L 518.07 651.63 L 508.59 650.88 L 503.34 646.71 L 504.05 641.76 L 512.59 638.57 L 516.03 634.82 L 525.36 618.61 L 533.35 616.54 L 539.38 618.61 L 544.32 622.84 L 546.04 629.09 L 546.67 639.47 L 526.45 649.14 Z M 469.40 534.94 L 469.64 536.75 L 471.52 538.39 L 468.78 539.56 L 465.02 539.95 L 457.97 545.48 L 457.34 547.45 L 460.87 551.37 L 467.21 554.43 L 470.89 561.13 L 472.77 563.13 L 473.95 565.40 L 474.50 571.23 L 477.24 578.96 L 476.69 582.67 L 472.15 588.09 L 466.82 589.12 L 462.59 594.39 L 456.56 597.36 L 440.81 602.19 L 437.60 605.70 L 411.04 606.38 L 412.29 609.84 L 418.40 611.43 L 422.87 613.95 L 425.38 617.27 L 420.91 620.30 L 414.02 619.35 L 408.30 621.85 L 407.90 630.11 L 412.61 633.72 L 413.47 637.88 L 418.56 642.20 L 427.02 644.07 L 447.23 655.44 L 466.98 661.29 L 481.23 670.38 L 487.11 683.84 L 505.52 668.62 L 520.95 661.02 L 530.90 660.75 L 548.77 666.03 L 551.35 659.94 L 556.91 655.96 L 567.02 655.70 L 605.80 643.13 L 601.26 635.02 L 601.26 630.95 L 577.44 633.07 L 576.34 629.07 L 576.89 621.46 L 578.69 619.35 L 591.15 614.87 L 600.87 609.49 L 604.47 606.04 L 630.17 601.21 L 649.91 593.32 L 657.19 588.53 L 658.37 585.64 L 654.14 583.93 L 655.55 581.00 L 658.21 578.82 L 670.83 573.79 L 673.96 571.23 L 675.92 568.22 L 678.82 566.50 L 683.60 566.87 L 685.55 568.96 L 690.33 569.21 L 690.49 566.87 L 692.53 564.44 L 696.84 565.04 L 697.85 567.36 L 702.63 567.72 L 712.82 565.89 L 717.36 566.25 L 719.09 568.84 L 723.47 566.74 L 745.10 561.60 L 748.54 560.31 L 750.97 558.24 L 753.95 559.74 L 758.10 558.93 L 763.27 563.84 L 767.82 562.66 L 769.62 560.31 L 773.69 558.70 L 778.94 559.04 L 780.51 561.25 L 783.80 559.04 L 797.04 558.24 L 805.81 559.27 L 810.28 563.01 L 814.66 561.95 L 828.37 561.60 L 847.96 556.88 L 851.02 555.32 L 855.48 550.41 L 859.63 551.26 L 861.20 553.22 L 864.65 554.54 L 868.80 554.10 L 874.60 557.56 L 878.67 556.21 L 880.08 553.77 L 887.84 550.94 L 896.46 549.13 L 906.01 545.58 L 909.77 546.20 L 915.96 542.94 L 919.72 543.04 L 923.01 541.83 L 923.80 540.05 L 927.17 538.68 L 938.13 536.56 L 945.42 537.33 L 948.63 538.68 L 949.02 540.84 L 954.98 543.95 L 959.76 544.56 L 965.71 547.45 L 969.55 547.76 L 976.21 544.56 L 987.65 546.93 L 995.56 547.34 L 998.85 553.00 L 998.69 554.43 L 998.22 557.00 L 991.25 560.66 L 991.80 563.01 L 996.27 562.89 L 995.72 565.28 L 991.80 570.22 L 994.86 572.25 L 999.48 572.89 L 1004.10 571.73 L 1007.63 566.87 L 1012.33 563.13 L 1015.46 558.13 L 1030.58 555.76 L 1033.71 551.48 L 1036.46 549.45 L 1043.74 547.03 L 1045.94 545.27 L 1051.11 543.54 L 1055.10 544.05 L 1062.62 542.94 L 1067.01 543.24 L 1069.91 541.83 L 1071.95 538.49 L 1075.31 542.23 L 1078.68 543.24 L 1096.70 543.04 L 1103.13 544.46 L 1114.72 543.04 L 1118.87 543.75 L 1131.33 535.32 L 1136.97 537.33 L 1144.73 542.13 L 1152.33 542.23 L 1160.94 540.94 L 1166.98 538.10 L 1171.44 537.91 L 1174.42 536.85 L 1177.55 537.81 L 1182.41 540.94 L 1186.80 540.74 L 1194.32 543.34 L 1199.33 543.85 L 1203.48 543.44 L 1209.28 540.25 L 1212.89 539.85 L 1220.64 541.04 L 1228.01 540.25 L 1235.21 541.24 L 1243.13 539.56 L 1259.03 538.49 L 1260.28 534.10 L 1262.79 535.42 L 1263.50 537.62 L 1266.47 541.34 L 1269.84 542.23 L 1292.25 541.44 L 1301.96 542.03 L 1304.78 543.64 L 1304.00 545.58 L 1306.58 547.14 L 1315.36 549.77 L 1330.01 552.46 L 1334.55 552.56 L 1337.14 550.73 L 1347.24 555.32 L 1356.72 556.55 L 1358.68 558.82 L 1363.23 560.20 L 1366.28 562.30 L 1370.75 563.25 L 1389.24 563.84 L 1402.01 567.36 L 1404.83 569.21 L 1404.36 571.73 L 1397.15 582.39 L 1391.90 583.51 L 1389.55 586.07 L 1384.38 587.66 L 1382.58 590.60 L 1376.94 595.94 L 1374.27 602.36 L 1373.96 609.49 L 1378.97 619.92 L 1386.42 621.27 L 1387.98 625.61 L 1374.66 629.49 L 1367.07 629.90 L 1363.70 636.11 L 1362.99 641.51 L 1359.15 650.61 L 1364.48 654.92 L 1366.52 660.48 L 1374.82 670.68 L 1386.42 680.56 L 1395.58 685.84 L 1397.62 694.61 L 1409.14 698.69 L 1412.90 706.10 L 1423.94 700.98 L 1440.00 712.42 L 1440.00 720.00 L 0.00 720.00 L 0.00 712.42 L 3.77 700.59 L 10.97 706.91 L 16.26 699.86 L 22.47 708.60 L 28.44 699.07 L 40.20 695.71 L 51.91 709.36 L 72.28 720.00 L 87.71 720.00 L 99.23 720.00 L 116.23 720.00 L 125.87 720.00 L 147.57 719.76 L 148.43 709.36 L 132.68 708.54 L 119.76 703.71 L 116.39 696.08 L 105.66 692.09 L 106.36 684.17 L 109.34 671.57 L 108.55 665.46 L 101.89 661.57 L 98.84 656.74 L 92.65 652.62 L 102.36 653.38 L 111.61 651.36 L 117.41 655.70 L 131.12 647.17 L 134.33 643.13 L 132.92 638.33 L 121.87 632.01 L 98.68 628.87 L 96.10 625.01 L 87.79 618.40 L 86.54 607.93 L 92.10 611.61 L 105.03 609.49 L 108.32 613.41 L 114.66 612.51 L 129.55 605.19 L 135.58 604.35 L 135.43 601.21 L 134.02 598.15 L 135.19 595.32 L 140.36 593.93 L 142.71 596.57 L 153.44 593.01 L 164.57 592.10 L 179.14 587.07 L 185.02 588.09 L 190.97 587.07 L 201.78 588.24 L 207.03 587.22 L 218.39 588.68 L 235.71 588.68 L 241.19 588.39 L 250.12 585.06 L 255.13 586.64 L 264.22 582.81 L 270.80 590.16 L 274.96 587.95 L 279.73 590.75 L 289.76 593.78 L 300.50 591.95 L 317.42 594.70 L 319.53 591.35 L 314.99 586.21 L 309.82 585.64 L 307.55 582.95 L 305.27 575.23 L 323.45 577.21 L 327.52 579.23 L 329.25 581.69 L 334.65 582.11 L 350.24 578.96 L 354.32 580.59 L 359.65 580.04 L 363.09 574.83 L 366.30 577.88 L 370.93 579.09 L 375.94 578.42 L 379.23 581.14 L 394.12 583.79 L 398.82 578.69 L 402.81 581.42 L 408.30 580.73 L 412.37 582.25 L 415.11 584.64 L 420.44 583.93 L 428.67 580.59 L 444.26 577.88 L 448.17 576.41 L 450.52 574.31 L 451.46 571.48 L 450.99 568.84 L 446.06 559.50 L 445.82 557.22 L 446.21 554.98 L 449.66 550.62 L 450.29 548.50 L 449.04 544.15 L 450.99 541.83 L 461.73 535.51 L 463.29 533.44 L 467.99 530.95 L 471.83 530.67 L 474.34 529.22 L 480.45 527.78 L 485.62 525.22 L 488.76 524.70 L 491.11 525.83 L 489.62 527.34 L 483.82 529.67 L 480.84 528.95 L 477.55 529.40 L 471.91 531.68 L 469.95 533.07 L 469.40 534.94 Z M 432.41 571.76 L 423.24 573.56 L 420.18 571.63 L 419.95 568.99 L 427.08 565.79 L 431.70 566.04 L 432.88 562.92 L 433.03 556.01 L 435.30 553.35 L 438.99 552.48 L 441.10 554.56 L 445.10 561.85 L 446.66 567.38 L 444.86 572.27 L 435.70 574.47 L 430.45 574.34 L 432.41 571.76 Z M 447.41 494.42 L 435.98 492.45 L 426.86 488.68 L 421.35 484.92 L 435.57 489.07 L 437.63 487.52 L 438.93 485.23 L 442.62 483.87 L 445.46 484.25 L 449.00 488.31 L 454.20 490.36 L 459.80 491.22 L 458.00 492.96 L 454.20 493.14 L 452.16 491.91 L 450.84 493.32 L 447.41 494.42 Z M 480.00 479.76 L 483.40 480.56 L 485.80 479.28 L 489.00 480.72 L 487.80 481.85 L 482.40 482.82 L 480.60 481.69 L 477.20 483.15 L 475.20 481.69 L 480.00 479.76 Z M 476.26 339.67 L 472.92 339.90 L 472.20 339.71 L 473.36 339.16 L 473.28 338.35 L 475.58 338.09 L 476.42 338.16 L 476.26 339.67 Z M 412.41 322.55 L 414.54 323.05 L 415.20 323.63 L 412.39 323.67 L 411.17 324.02 L 406.65 322.92 L 407.13 322.44 L 408.81 322.29 L 412.41 322.55 Z M 456.91 322.49 L 457.64 322.91 L 456.61 323.44 L 451.26 323.51 L 451.03 322.60 L 451.60 322.30 L 456.91 322.49 Z M 443.11 320.62 L 442.98 321.25 L 444.76 321.33 L 446.73 322.10 L 445.24 322.96 L 443.34 322.50 L 440.19 322.49 L 437.93 323.01 L 437.32 322.49 L 436.00 322.80 L 434.40 324.24 L 433.37 323.90 L 433.17 323.30 L 430.51 322.94 L 426.18 322.93 L 424.31 323.33 L 422.17 322.67 L 422.52 321.99 L 429.22 322.45 L 430.66 321.98 L 428.83 321.07 L 428.86 320.26 L 426.34 319.93 L 427.24 319.34 L 433.15 319.77 L 433.65 319.41 L 436.77 319.42 L 440.20 319.91 L 440.92 320.66 L 443.11 320.62 Z M 417.61 316.99 L 417.32 317.59 L 420.26 317.68 L 423.29 318.56 L 422.81 319.05 L 417.46 319.43 L 408.98 319.47 L 411.66 318.28 L 410.03 317.73 L 407.45 317.58 L 406.07 316.97 L 405.12 315.74 L 402.86 315.83 L 397.93 314.80 L 392.72 314.46 L 391.32 314.04 L 392.82 313.50 L 388.90 313.39 L 386.02 314.51 L 384.36 314.54 L 383.79 315.07 L 381.81 315.31 L 380.10 315.10 L 382.21 314.43 L 383.08 313.65 L 386.93 312.75 L 390.93 312.30 L 397.52 312.48 L 401.28 313.22 L 402.87 314.01 L 406.61 313.77 L 413.90 316.58 L 417.61 316.99 Z M 409.86 311.06 L 408.88 311.17 L 407.86 309.90 L 406.37 309.27 L 407.24 307.87 L 408.44 307.96 L 409.84 309.79 L 409.86 311.06 Z M 411.31 306.39 L 410.57 306.10 L 410.64 304.94 L 408.84 303.79 L 412.00 304.80 L 411.31 306.39 Z M 404.08 304.35 L 408.60 304.24 L 408.72 304.82 L 404.36 305.18 L 404.08 304.35 Z M 752.64 270.08 L 754.84 270.21 L 756.84 269.39 L 759.24 271.27 L 758.68 274.71 L 756.86 274.55 L 755.23 275.41 L 753.71 274.73 L 753.55 271.59 L 752.64 270.08 Z M 463.94 253.14 L 465.34 254.56 L 471.95 254.87 L 469.98 256.05 L 468.50 256.24 L 463.43 255.01 L 462.43 254.04 L 463.94 253.14 Z M 506.09 246.50 L 504.86 248.73 L 507.66 248.21 L 509.41 251.66 L 507.72 254.25 L 503.28 253.81 L 504.15 251.40 L 503.04 251.02 L 498.40 253.58 L 496.01 253.48 L 498.84 252.10 L 495.00 251.38 L 482.94 251.46 L 482.32 250.58 L 484.81 249.53 L 483.07 248.71 L 486.43 246.88 L 490.57 241.93 L 493.05 240.12 L 496.52 239.02 L 498.37 239.16 L 492.82 244.77 L 495.43 243.72 L 498.11 244.38 L 496.71 245.46 L 500.26 246.31 L 502.10 245.56 L 506.09 246.50 Z M 472.77 246.94 L 465.64 246.04 L 461.92 244.58 L 463.31 244.32 L 468.57 245.09 L 472.66 246.38 L 472.77 246.94 Z M 693.06 227.13 L 697.35 229.28 L 695.21 231.63 L 695.87 234.03 L 692.84 236.98 L 685.75 238.90 L 680.09 238.41 L 683.33 234.99 L 681.25 231.58 L 689.71 227.27 L 693.06 227.13 Z M 715.54 229.04 L 718.28 229.59 L 721.88 234.77 L 726.73 235.40 L 726.24 237.50 L 724.20 238.45 L 725.80 240.12 L 722.20 241.78 L 716.85 241.75 L 710.04 242.62 L 708.17 242.00 L 705.53 243.47 L 701.83 243.12 L 699.02 244.31 L 696.89 243.69 L 702.76 240.37 L 706.34 239.68 L 700.06 239.14 L 698.93 237.85 L 703.11 236.84 L 700.92 235.07 L 701.68 232.89 L 707.63 233.19 L 708.22 231.23 L 705.48 229.07 L 700.62 228.46 L 699.67 227.52 L 701.12 225.95 L 699.81 224.97 L 697.65 226.65 L 697.42 223.22 L 695.40 221.37 L 696.85 217.54 L 699.96 214.46 L 707.98 214.44 L 703.70 218.53 L 712.16 218.04 L 711.12 221.06 L 707.52 224.30 L 711.66 224.52 L 715.54 229.04 Z M 402.94 200.16 L 401.37 202.39 L 399.60 202.03 L 398.55 200.76 L 400.28 199.18 L 401.92 199.28 L 402.94 200.16 Z M 387.73 200.15 L 384.90 200.05 L 384.03 198.89 L 387.00 196.88 L 392.49 196.92 L 392.41 197.77 L 387.73 200.15 Z M 396.73 191.76 L 399.59 193.26 L 396.04 194.68 L 389.81 193.60 L 387.56 191.55 L 377.91 196.27 L 376.53 193.66 L 371.11 194.10 L 374.59 191.86 L 376.46 183.83 L 379.35 184.22 L 380.10 186.34 L 382.14 185.60 L 393.43 189.93 L 393.79 192.11 L 396.73 191.76 Z M 628.95 192.20 L 632.89 190.17 L 624.18 187.89 L 631.26 186.97 L 631.09 185.57 L 622.70 184.45 L 625.40 181.25 L 631.46 180.51 L 637.69 183.86 L 643.77 181.18 L 648.81 182.58 L 655.33 179.93 L 661.97 180.29 L 661.04 183.49 L 665.56 186.77 L 660.36 190.35 L 645.38 194.30 L 628.95 192.20 Z M 419.14 175.24 L 416.54 176.77 L 412.05 177.03 L 411.05 174.49 L 412.75 171.51 L 416.42 170.76 L 419.54 172.25 L 419.14 175.24 Z M 408.70 143.89 L 423.09 150.34 L 423.60 153.09 L 431.03 151.67 L 435.20 155.63 L 444.86 158.03 L 448.34 160.42 L 452.12 165.81 L 444.78 168.40 L 454.20 171.95 L 460.55 173.12 L 466.30 177.90 L 472.59 178.24 L 471.35 181.76 L 464.33 187.38 L 459.40 185.34 L 453.12 180.63 L 447.94 181.25 L 447.43 184.07 L 458.72 190.26 L 461.32 194.76 L 459.94 197.93 L 444.87 193.17 L 454.69 199.64 L 455.34 201.13 L 444.49 199.42 L 435.91 196.89 L 431.06 194.74 L 432.45 193.47 L 420.66 188.88 L 420.73 190.23 L 409.16 190.97 L 405.78 189.38 L 408.41 185.90 L 424.16 185.20 L 422.82 183.47 L 424.22 181.01 L 429.40 176.07 L 426.75 171.93 L 420.63 169.31 L 412.52 167.43 L 415.09 166.02 L 410.85 162.48 L 407.33 162.15 L 404.17 160.16 L 402.03 161.88 L 394.78 162.63 L 380.22 161.33 L 365.27 158.71 L 361.95 156.60 L 366.13 153.80 L 360.45 153.77 L 359.18 147.31 L 362.25 141.30 L 366.37 138.45 L 376.70 136.56 L 373.75 141.10 L 376.90 145.33 L 380.60 139.84 L 390.74 136.94 L 397.60 144.11 L 397.00 148.44 L 404.92 146.54 L 408.70 143.89 Z M 620.62 58.17 L 628.39 53.80 L 631.71 58.91 L 627.32 66.73 L 637.51 61.79 L 656.93 56.40 L 668.92 59.12 L 671.17 64.91 L 654.86 73.95 L 652.60 76.72 L 639.82 78.77 L 649.08 79.33 L 641.18 94.39 L 641.31 105.27 L 646.11 111.22 L 639.86 111.59 L 633.28 114.36 L 640.66 118.85 L 641.60 125.72 L 637.33 126.44 L 642.51 132.98 L 633.62 133.51 L 638.26 136.46 L 636.95 138.97 L 625.74 140.07 L 630.75 144.70 L 630.80 147.64 L 622.89 144.91 L 620.83 146.68 L 626.23 148.32 L 631.47 152.23 L 632.99 157.19 L 625.86 158.35 L 617.83 152.47 L 619.19 156.66 L 614.55 159.80 L 630.60 160.38 L 609.01 169.77 L 592.89 171.66 L 588.76 173.71 L 583.19 179.16 L 574.59 182.65 L 560.75 185.18 L 557.32 188.13 L 557.27 191.38 L 555.25 194.36 L 548.72 197.89 L 550.33 201.26 L 546.49 208.70 L 540.85 208.94 L 534.95 205.63 L 526.95 205.61 L 523.07 203.34 L 520.40 199.19 L 513.47 193.71 L 511.44 190.74 L 510.89 186.53 L 505.35 182.06 L 506.79 178.37 L 504.12 176.56 L 508.08 170.38 L 514.10 168.35 L 515.68 166.02 L 516.52 161.55 L 506.17 165.25 L 501.27 163.40 L 501.00 159.43 L 502.56 156.24 L 514.44 157.76 L 503.98 151.73 L 500.00 152.62 L 496.66 151.05 L 501.13 144.98 L 490.71 129.87 L 485.61 126.89 L 485.66 123.59 L 474.93 118.81 L 445.98 119.16 L 434.39 111.02 L 444.89 108.18 L 452.94 107.70 L 435.83 105.30 L 426.81 101.42 L 427.36 97.61 L 457.16 87.60 L 458.70 83.58 L 447.91 79.47 L 451.39 74.73 L 465.24 65.93 L 471.06 64.52 L 469.40 58.40 L 478.87 54.67 L 503.46 52.25 L 507.83 56.75 L 518.44 48.67 L 541.91 59.93 L 532.40 52.24 L 532.94 45.76 L 546.37 36.05 L 560.41 36.81 L 565.51 30.42 L 579.65 28.70 L 611.60 30.95 L 636.62 44.21 L 629.23 50.13 L 592.40 52.24 L 594.41 54.84 L 608.57 53.24 L 620.62 58.17 Z M 350.32 134.41 L 357.96 136.18 L 351.98 142.42 L 347.21 143.74 L 342.92 148.68 L 338.36 148.44 L 335.87 142.59 L 335.93 139.16 L 338.02 136.14 L 341.99 134.16 L 350.32 134.41 Z M 396.66 137.35 L 407.74 137.64 L 414.64 141.48 L 414.99 143.37 L 406.43 143.03 L 402.05 143.94 L 396.50 139.88 L 396.66 137.35 Z M 368.65 123.20 L 374.48 123.87 L 380.84 122.13 L 395.49 122.01 L 399.77 125.02 L 400.66 128.25 L 398.17 130.27 L 392.20 131.89 L 387.08 130.98 L 367.40 132.26 L 360.94 131.34 L 350.31 128.90 L 348.44 120.63 L 344.42 117.00 L 336.15 115.96 L 331.51 113.29 L 333.02 109.65 L 341.26 110.22 L 345.70 113.07 L 353.58 113.05 L 357.03 115.89 L 356.12 119.05 L 363.25 122.84 L 368.65 123.20 Z M 449.37 62.10 L 458.08 62.03 L 442.12 73.50 L 435.28 83.11 L 427.03 84.97 L 424.48 87.21 L 412.37 88.37 L 417.88 89.72 L 415.12 91.61 L 418.43 96.68 L 414.63 100.07 L 408.45 102.81 L 406.55 106.48 L 400.96 109.21 L 401.52 111.24 L 408.36 110.90 L 408.44 113.05 L 397.75 118.18 L 387.30 115.85 L 375.55 117.17 L 362.04 115.69 L 361.54 111.52 L 368.93 109.50 L 366.96 102.81 L 369.40 102.13 L 380.09 106.20 L 374.64 100.10 L 368.15 98.22 L 371.39 94.31 L 378.49 91.84 L 379.62 88.13 L 373.97 83.83 L 372.27 77.89 L 386.37 79.67 L 392.61 75.35 L 369.60 74.72 L 362.53 70.53 L 359.20 65.33 L 354.53 61.40 L 353.65 56.66 L 372.12 51.06 L 378.00 45.38 L 382.96 46.19 L 387.28 50.46 L 390.32 42.08 L 402.77 37.64 L 417.12 38.75 L 428.67 35.91 L 456.69 39.35 L 472.60 45.75 L 472.42 49.83 L 449.37 62.10 Z M 344.26 90.61 L 347.42 87.76 L 340.10 87.84 L 335.70 84.18 L 333.16 79.00 L 338.71 69.88 L 342.81 68.99 L 341.06 66.03 L 350.36 65.36 L 355.47 72.18 L 368.76 77.08 L 371.92 84.68 L 376.74 88.22 L 371.25 91.40 L 363.86 99.05 L 356.78 99.76 L 348.49 98.50 L 344.20 94.39 L 344.26 90.61 Z M 1002.24 473.52 L 1001.12 474.92 L 994.98 475.12 L 994.88 473.48 L 995.74 471.60 L 998.32 472.55 L 1002.10 472.93 L 1002.24 473.52 Z M 919.45 393.36 L 919.10 394.25 L 917.99 394.73 L 917.74 396.51 L 908.38 411.54 L 901.64 413.00 L 896.16 411.64 L 895.06 410.48 L 894.79 408.54 L 893.38 406.80 L 893.02 405.25 L 893.73 403.69 L 895.57 403.32 L 895.59 402.61 L 897.50 400.99 L 897.86 399.64 L 896.17 397.30 L 895.85 395.37 L 897.25 394.20 L 897.79 392.87 L 905.25 391.97 L 910.82 389.51 L 912.02 388.47 L 911.48 387.59 L 913.18 387.84 L 915.38 386.41 L 915.45 385.18 L 916.78 384.26 L 919.24 386.01 L 920.23 387.37 L 920.87 389.85 L 921.91 390.82 L 920.80 392.42 L 919.44 391.21 L 918.69 391.82 L 919.45 393.36 Z M 1201.18 380.63 L 1195.87 379.21 L 1199.60 378.81 L 1203.10 380.04 L 1202.86 380.59 L 1201.18 380.63 Z M 1188.33 376.98 L 1190.53 376.96 L 1191.60 376.25 L 1193.04 376.78 L 1195.51 376.62 L 1196.51 377.48 L 1186.96 378.14 L 1188.33 376.98 Z M 1208.03 376.98 L 1211.61 376.24 L 1211.03 377.37 L 1205.02 377.94 L 1199.70 377.69 L 1199.68 376.95 L 1202.86 376.53 L 1205.37 377.14 L 1208.03 376.98 Z M 1178.26 377.57 L 1173.86 376.76 L 1166.09 376.66 L 1154.77 375.33 L 1153.11 375.58 L 1145.82 374.75 L 1145.12 373.88 L 1141.46 373.74 L 1144.21 371.81 L 1149.06 371.93 L 1153.95 372.87 L 1154.49 373.59 L 1162.16 373.79 L 1163.04 372.96 L 1170.46 373.93 L 1171.92 375.23 L 1177.92 375.60 L 1182.82 376.80 L 1178.26 377.57 Z M 1203.74 362.82 L 1205.90 361.91 L 1213.36 361.23 L 1213.03 362.15 L 1211.29 361.86 L 1209.55 363.03 L 1206.03 363.81 L 1209.82 366.38 L 1209.09 367.06 L 1212.68 369.38 L 1212.65 370.70 L 1210.51 371.29 L 1208.95 370.58 L 1210.88 368.94 L 1206.95 369.71 L 1205.96 369.16 L 1206.48 368.38 L 1203.59 367.21 L 1203.89 365.26 L 1201.22 365.87 L 1201.72 371.07 L 1199.19 371.37 L 1197.47 370.78 L 1198.61 368.93 L 1198.00 366.99 L 1196.31 366.98 L 1195.07 365.61 L 1196.72 364.30 L 1199.30 359.69 L 1200.14 358.87 L 1203.54 357.38 L 1206.67 357.97 L 1211.71 358.25 L 1216.31 358.17 L 1220.26 356.71 L 1220.96 357.16 L 1217.75 359.14 L 1214.74 359.53 L 1210.89 359.14 L 1200.73 359.53 L 1200.16 361.04 L 1203.74 362.82 Z M 1120.57 361.30 L 1117.05 359.63 L 1114.41 356.35 L 1110.80 355.09 L 1108.71 353.38 L 1105.70 352.26 L 1101.52 350.05 L 1101.17 349.02 L 1109.94 349.49 L 1122.57 355.80 L 1126.63 355.83 L 1129.99 357.20 L 1132.31 358.88 L 1135.35 359.79 L 1133.75 361.42 L 1136.04 362.12 L 1137.48 362.17 L 1138.16 363.57 L 1139.55 364.68 L 1142.49 364.86 L 1144.43 366.13 L 1143.43 368.62 L 1143.27 371.73 L 1138.84 371.77 L 1135.47 370.09 L 1130.34 368.45 L 1125.60 365.60 L 1120.57 361.30 Z M 1184.59 368.03 L 1184.00 367.32 L 1179.46 368.22 L 1177.87 367.00 L 1175.02 366.88 L 1173.03 366.24 L 1168.27 366.96 L 1166.81 365.99 L 1160.90 365.87 L 1160.28 363.19 L 1158.29 362.63 L 1156.37 360.92 L 1155.81 359.17 L 1156.28 357.32 L 1158.65 355.99 L 1161.58 356.67 L 1164.68 356.30 L 1165.48 354.60 L 1171.98 353.79 L 1178.40 350.19 L 1184.88 347.69 L 1186.90 346.12 L 1188.52 346.11 L 1190.57 347.13 L 1190.76 348.00 L 1196.73 349.17 L 1196.44 349.95 L 1193.76 350.05 L 1194.47 351.03 L 1191.53 351.72 L 1189.25 353.53 L 1192.19 355.42 L 1191.50 356.34 L 1195.99 358.20 L 1191.25 358.43 L 1189.91 359.80 L 1190.09 361.61 L 1186.24 362.98 L 1186.14 364.97 L 1184.59 368.03 Z M 1221.59 348.82 L 1216.88 347.65 L 1215.75 346.20 L 1216.97 345.24 L 1214.44 344.28 L 1213.18 345.12 L 1211.30 345.04 L 1208.34 346.17 L 1207.68 345.58 L 1209.25 343.88 L 1213.95 342.55 L 1215.36 343.46 L 1218.41 342.91 L 1219.06 342.01 L 1221.89 341.95 L 1221.65 340.38 L 1224.89 341.35 L 1226.15 345.58 L 1224.79 347.43 L 1223.33 345.37 L 1221.46 346.40 L 1222.73 347.88 L 1221.59 348.82 Z M 1047.15 344.91 L 1046.55 347.01 L 1044.87 347.58 L 1041.39 348.04 L 1039.49 346.44 L 1038.78 343.54 L 1040.59 340.25 L 1043.36 341.38 L 1047.15 344.91 Z M 1196.12 339.89 L 1194.02 341.28 L 1188.70 343.21 L 1190.66 341.79 L 1195.95 339.13 L 1198.05 337.11 L 1198.76 338.77 L 1196.12 339.89 Z M 1211.79 338.10 L 1214.00 337.98 L 1213.35 339.35 L 1216.31 337.39 L 1215.93 339.33 L 1211.98 341.88 L 1209.52 340.48 L 1211.35 339.37 L 1211.79 338.10 Z M 1208.15 337.02 L 1207.53 336.04 L 1209.94 336.68 L 1212.48 336.67 L 1212.40 337.53 L 1208.01 339.00 L 1208.15 337.02 Z M 1217.84 338.09 L 1217.21 336.85 L 1219.56 337.02 L 1219.51 336.24 L 1217.07 334.68 L 1220.91 334.73 L 1222.01 335.49 L 1223.13 337.77 L 1220.05 337.23 L 1221.11 339.17 L 1219.21 339.62 L 1219.04 338.19 L 1217.84 338.09 Z M 1203.34 334.38 L 1201.29 332.82 L 1204.72 332.89 L 1206.11 333.63 L 1205.05 335.40 L 1203.34 334.38 Z M 1206.65 327.72 L 1206.02 329.39 L 1206.92 331.04 L 1209.04 331.27 L 1210.81 331.02 L 1215.80 332.17 L 1215.42 333.29 L 1216.73 333.78 L 1216.31 334.72 L 1213.19 333.72 L 1211.71 332.64 L 1210.69 333.39 L 1208.14 332.16 L 1204.51 332.47 L 1202.51 332.01 L 1202.72 331.16 L 1203.97 330.63 L 1202.77 330.15 L 1202.26 330.90 L 1200.28 329.71 L 1199.54 326.82 L 1201.15 327.50 L 1201.56 324.23 L 1202.86 322.33 L 1205.29 322.33 L 1207.75 322.93 L 1208.98 322.38 L 1209.35 322.92 L 1208.70 323.79 L 1210.06 325.29 L 1209.01 327.03 L 1206.65 327.72 Z M 1164.04 319.81 L 1162.28 320.74 L 1161.36 321.96 L 1157.90 322.98 L 1154.62 322.32 L 1154.50 320.50 L 1156.48 319.54 L 1160.85 318.95 L 1163.15 319.00 L 1164.04 319.81 Z M 1171.12 127.41 L 1160.61 131.63 L 1157.60 133.83 L 1168.48 136.67 L 1172.08 135.31 L 1174.12 139.87 L 1175.88 138.05 L 1182.27 136.92 L 1195.11 138.10 L 1196.08 141.36 L 1212.80 142.38 L 1213.03 137.05 L 1227.91 138.25 L 1234.37 141.92 L 1236.21 146.23 L 1233.84 148.97 L 1238.86 153.95 L 1245.15 156.44 L 1249.01 149.89 L 1255.43 152.75 L 1262.25 151.05 L 1269.99 152.99 L 1272.94 151.22 L 1279.48 152.11 L 1276.59 146.11 L 1281.87 143.21 L 1318.00 147.54 L 1321.41 151.36 L 1331.88 156.11 L 1348.03 154.95 L 1355.99 155.96 L 1359.32 158.46 L 1358.83 162.75 L 1363.76 164.38 L 1369.12 163.21 L 1376.21 163.06 L 1383.76 164.18 L 1391.34 163.55 L 1398.31 168.54 L 1403.27 166.77 L 1400.03 163.15 L 1401.81 160.57 L 1414.58 162.20 L 1422.90 161.85 L 1434.40 164.59 L 1440.00 167.05 L 1440.00 187.47 L 1434.83 189.56 L 1429.65 189.21 L 1433.25 191.67 L 1435.63 195.39 L 1437.48 196.58 L 1437.95 198.39 L 1436.91 199.53 L 1429.46 198.59 L 1414.72 202.31 L 1402.79 207.74 L 1401.32 209.56 L 1395.60 206.77 L 1385.18 209.93 L 1383.36 208.45 L 1379.51 210.16 L 1374.16 209.61 L 1372.87 212.21 L 1368.07 215.94 L 1368.21 217.46 L 1372.77 218.30 L 1372.23 223.63 L 1368.52 223.77 L 1366.81 226.73 L 1368.47 228.24 L 1361.48 230.00 L 1360.09 233.87 L 1354.12 234.68 L 1352.93 238.01 L 1347.16 241.00 L 1345.68 238.80 L 1341.73 226.40 L 1343.66 221.43 L 1347.03 219.23 L 1347.24 217.49 L 1353.46 216.65 L 1367.49 207.71 L 1374.68 204.44 L 1377.89 198.47 L 1373.03 198.83 L 1370.63 202.35 L 1360.49 206.89 L 1357.21 201.79 L 1346.88 203.22 L 1336.87 210.05 L 1340.18 212.46 L 1325.06 213.88 L 1325.35 211.06 L 1319.13 210.46 L 1314.18 212.39 L 1301.95 211.72 L 1288.79 212.87 L 1260.51 228.67 L 1266.81 229.11 L 1268.77 231.26 L 1272.66 232.01 L 1275.22 230.31 L 1279.61 230.53 L 1285.38 234.24 L 1285.52 237.05 L 1282.39 240.28 L 1282.05 244.04 L 1280.25 248.94 L 1274.22 253.24 L 1272.88 255.26 L 1259.48 263.47 L 1254.15 265.08 L 1251.63 265.11 L 1249.11 263.78 L 1243.74 265.78 L 1243.12 266.68 L 1241.60 266.52 L 1239.86 267.43 L 1238.67 268.35 L 1238.82 270.26 L 1234.53 272.08 L 1230.13 273.21 L 1229.54 274.62 L 1233.40 276.16 L 1236.85 279.16 L 1237.84 280.79 L 1237.87 283.64 L 1236.37 284.99 L 1232.74 285.46 L 1229.55 286.47 L 1225.94 286.67 L 1225.50 285.35 L 1226.24 283.51 L 1224.47 280.93 L 1227.44 280.51 L 1224.70 278.36 L 1222.76 277.88 L 1221.10 278.56 L 1220.96 278.09 L 1218.85 277.45 L 1220.89 276.03 L 1220.53 275.56 L 1221.55 274.17 L 1221.28 273.74 L 1217.06 272.76 L 1211.47 273.52 L 1208.53 274.73 L 1204.22 275.43 L 1206.34 274.24 L 1205.51 273.23 L 1208.67 271.47 L 1206.56 270.09 L 1198.56 272.84 L 1196.09 274.52 L 1192.17 274.64 L 1190.13 275.84 L 1192.24 277.57 L 1195.51 277.99 L 1195.65 279.12 L 1198.81 279.85 L 1203.29 278.05 L 1206.85 279.04 L 1209.43 279.10 L 1210.08 280.42 L 1204.42 281.12 L 1202.55 282.46 L 1198.66 283.70 L 1196.61 285.41 L 1200.91 286.75 L 1202.48 289.12 L 1207.63 293.11 L 1207.57 294.85 L 1205.06 295.49 L 1206.01 296.72 L 1208.37 297.44 L 1206.74 301.12 L 1204.50 301.32 L 1194.63 309.33 L 1183.56 313.18 L 1179.06 313.43 L 1176.61 314.39 L 1175.23 313.69 L 1172.96 314.77 L 1167.37 315.85 L 1163.14 316.17 L 1161.78 318.44 L 1159.56 318.56 L 1158.51 317.01 L 1159.46 316.18 L 1154.09 315.49 L 1146.86 317.68 L 1143.53 319.69 L 1142.65 321.16 L 1149.45 326.12 L 1153.08 327.41 L 1155.51 329.08 L 1157.34 332.90 L 1156.80 336.50 L 1148.88 339.16 L 1145.62 340.85 L 1140.63 342.74 L 1139.18 341.44 L 1140.31 340.06 L 1137.34 338.91 L 1133.99 338.61 L 1130.34 335.44 L 1126.75 334.50 L 1123.33 334.54 L 1123.91 332.93 L 1120.39 332.94 L 1120.07 335.19 L 1116.61 339.97 L 1116.89 341.44 L 1119.50 341.50 L 1121.12 343.35 L 1121.84 345.10 L 1124.07 346.25 L 1126.49 346.49 L 1131.85 348.93 L 1133.53 350.28 L 1133.33 352.54 L 1134.01 354.42 L 1135.42 354.97 L 1136.99 356.74 L 1136.92 357.41 L 1134.08 357.55 L 1125.56 354.48 L 1125.09 353.46 L 1122.78 352.12 L 1122.23 350.45 L 1120.79 349.36 L 1121.23 347.90 L 1120.34 347.04 L 1118.76 346.27 L 1118.08 345.27 L 1114.02 343.18 L 1113.36 344.36 L 1112.60 343.24 L 1114.21 340.03 L 1113.83 338.52 L 1115.06 336.96 L 1113.71 335.75 L 1114.04 333.52 L 1112.41 332.46 L 1110.39 327.37 L 1108.66 325.64 L 1101.48 328.17 L 1096.76 327.50 L 1098.13 324.91 L 1097.30 322.94 L 1094.16 320.51 L 1094.65 319.74 L 1092.31 319.47 L 1089.47 317.73 L 1087.34 314.48 L 1085.67 313.22 L 1081.98 313.14 L 1082.35 314.03 L 1081.09 315.23 L 1079.39 314.79 L 1078.81 315.19 L 1076.13 314.76 L 1075.56 315.54 L 1067.90 315.96 L 1068.13 317.58 L 1066.00 318.84 L 1060.24 320.27 L 1055.76 322.76 L 1048.77 325.45 L 1048.77 326.42 L 1043.17 327.68 L 1041.30 327.79 L 1040.10 329.37 L 1041.15 333.76 L 1039.45 335.71 L 1039.43 339.17 L 1037.36 339.27 L 1035.54 340.82 L 1036.76 341.49 L 1033.11 342.06 L 1031.77 343.44 L 1030.16 344.02 L 1026.37 342.13 L 1022.99 337.24 L 1019.46 334.30 L 1017.78 330.44 L 1014.14 327.60 L 1011.28 320.84 L 1011.30 318.27 L 1010.52 316.26 L 1004.70 317.55 L 1001.88 317.29 L 996.66 314.68 L 998.58 313.90 L 997.40 313.05 L 992.71 311.20 L 989.77 310.65 L 988.58 309.07 L 985.49 307.39 L 965.99 308.16 L 949.59 306.70 L 947.88 303.96 L 945.97 303.56 L 942.89 303.96 L 938.86 305.05 L 933.97 304.30 L 929.93 302.58 L 926.08 301.93 L 920.46 296.71 L 918.31 297.09 L 915.77 296.32 L 914.27 297.22 L 911.90 297.11 L 912.73 298.13 L 912.38 298.65 L 915.23 302.33 L 917.20 302.85 L 917.88 303.64 L 920.61 304.58 L 920.45 306.24 L 923.24 308.87 L 922.98 307.27 L 924.05 306.10 L 925.15 305.86 L 926.36 306.56 L 926.43 307.86 L 925.56 309.15 L 926.32 309.99 L 927.03 309.89 L 927.18 310.49 L 930.31 310.14 L 936.03 310.26 L 945.45 305.24 L 945.94 305.43 L 945.04 306.75 L 945.59 308.50 L 947.38 310.00 L 949.61 310.80 L 954.92 311.48 L 957.80 313.45 L 959.23 313.72 L 959.23 314.21 L 953.95 318.25 L 952.14 318.14 L 951.31 318.64 L 950.66 319.72 L 950.78 321.40 L 948.94 321.39 L 946.44 322.18 L 946.05 323.21 L 945.13 323.65 L 942.65 323.64 L 941.08 324.17 L 941.10 325.01 L 939.16 325.59 L 936.96 325.40 L 929.54 326.78 L 928.67 328.41 L 918.30 330.25 L 914.72 331.71 L 911.76 331.70 L 909.42 332.56 L 902.50 333.18 L 899.96 334.39 L 893.93 334.52 L 892.89 333.32 L 893.01 332.20 L 890.42 329.21 L 891.22 329.11 L 890.60 325.96 L 889.39 325.33 L 889.08 324.50 L 887.02 323.74 L 884.89 321.98 L 883.76 320.25 L 880.99 318.79 L 879.21 318.44 L 876.56 316.40 L 876.27 313.62 L 873.97 311.21 L 869.93 309.91 L 867.73 307.00 L 866.56 306.50 L 860.52 301.48 L 858.53 301.50 L 859.69 298.20 L 856.62 302.03 L 855.69 302.42 L 852.55 300.68 L 849.69 297.40 L 849.28 297.61 L 850.94 300.02 L 856.42 305.80 L 862.77 310.69 L 861.97 311.07 L 862.10 312.49 L 867.47 314.88 L 868.75 316.99 L 867.88 317.37 L 868.46 319.57 L 869.93 322.10 L 873.64 323.40 L 877.06 327.74 L 884.72 330.70 L 893.27 335.02 L 893.15 335.87 L 890.86 336.36 L 893.88 337.30 L 896.47 338.99 L 898.46 339.00 L 906.58 338.24 L 913.52 337.10 L 917.07 336.99 L 921.04 336.48 L 922.93 335.78 L 924.45 335.77 L 924.18 338.59 L 917.81 346.36 L 910.96 351.55 L 906.26 354.29 L 892.54 359.42 L 888.17 361.84 L 886.34 363.37 L 883.54 364.17 L 882.55 365.00 L 881.05 365.15 L 880.49 366.56 L 879.20 367.37 L 878.42 368.70 L 876.81 369.36 L 874.96 371.84 L 875.20 372.98 L 877.76 373.71 L 876.78 375.45 L 876.75 377.03 L 879.80 380.30 L 881.27 380.75 L 881.91 381.66 L 882.40 388.70 L 883.10 389.71 L 880.36 392.63 L 877.81 393.93 L 869.64 395.74 L 859.15 400.38 L 858.81 401.90 L 860.70 403.52 L 861.54 405.43 L 862.25 405.32 L 861.49 408.45 L 862.43 408.83 L 861.83 409.74 L 860.16 410.52 L 852.05 412.46 L 850.30 413.28 L 850.64 414.21 L 851.66 414.36 L 849.85 419.05 L 848.81 420.08 L 845.30 421.57 L 840.22 425.59 L 832.88 429.44 L 829.86 430.53 L 823.64 431.58 L 823.12 432.25 L 820.69 431.89 L 818.71 432.35 L 814.38 431.89 L 810.30 432.06 L 802.76 433.39 L 800.29 434.31 L 798.47 434.37 L 796.77 433.50 L 795.42 433.46 L 793.70 432.38 L 793.51 432.71 L 793.00 430.66 L 791.70 429.06 L 792.99 428.63 L 792.89 426.82 L 785.38 419.68 L 782.41 417.97 L 780.84 416.32 L 777.63 409.15 L 777.03 405.36 L 773.41 402.70 L 770.43 398.81 L 767.18 396.75 L 766.56 393.83 L 767.11 392.00 L 770.00 387.35 L 774.53 384.26 L 774.75 381.59 L 773.55 380.86 L 771.50 378.41 L 772.95 377.19 L 770.91 373.89 L 768.91 372.61 L 769.29 372.22 L 767.66 370.09 L 757.62 364.29 L 755.19 362.22 L 757.97 357.98 L 757.22 357.68 L 759.18 353.85 L 757.62 352.53 L 755.79 352.19 L 754.98 351.29 L 753.96 351.00 L 754.00 350.44 L 749.85 351.17 L 748.33 351.06 L 746.79 351.51 L 743.59 351.47 L 741.45 350.21 L 740.13 348.76 L 737.30 347.43 L 727.46 347.69 L 712.14 350.57 L 708.58 350.00 L 701.40 349.65 L 696.66 350.00 L 689.92 351.32 L 688.10 351.28 L 683.98 350.32 L 674.24 346.40 L 670.29 345.44 L 668.20 344.35 L 667.01 342.12 L 663.70 340.13 L 661.68 339.46 L 660.64 338.11 L 657.34 336.93 L 655.66 336.79 L 654.76 335.91 L 653.54 335.47 L 652.63 333.46 L 653.15 332.55 L 651.50 330.95 L 649.50 330.21 L 651.26 329.82 L 654.15 327.29 L 653.80 326.17 L 654.92 325.14 L 655.41 323.16 L 654.49 320.03 L 654.89 318.97 L 653.85 317.95 L 651.75 317.03 L 652.11 315.12 L 653.64 314.54 L 654.95 313.41 L 654.69 312.67 L 656.07 311.14 L 658.30 309.74 L 659.64 309.39 L 660.70 308.10 L 660.80 306.93 L 662.24 305.55 L 664.90 304.74 L 667.44 302.44 L 669.52 301.54 L 673.24 301.29 L 678.40 299.13 L 681.74 297.21 L 680.74 294.32 L 682.80 291.05 L 685.37 289.44 L 692.35 287.35 L 696.28 283.33 L 699.22 283.34 L 701.64 284.38 L 705.44 284.21 L 711.32 284.78 L 715.17 283.44 L 719.49 283.01 L 722.02 281.99 L 725.87 281.23 L 739.26 280.58 L 741.28 280.95 L 745.05 279.97 L 749.32 279.95 L 750.95 280.53 L 753.68 280.38 L 758.04 279.37 L 760.84 279.67 L 760.72 280.94 L 764.12 280.01 L 764.40 280.50 L 762.40 281.72 L 762.37 282.86 L 763.76 283.48 L 763.23 285.60 L 760.60 286.82 L 761.36 288.13 L 763.43 288.17 L 764.43 289.32 L 765.96 289.69 L 770.65 290.51 L 772.33 290.30 L 775.67 290.70 L 780.98 291.76 L 782.86 293.85 L 792.08 295.28 L 796.35 296.44 L 800.21 294.77 L 799.28 292.97 L 800.54 291.82 L 803.42 290.71 L 806.17 290.39 L 811.58 290.88 L 812.95 291.94 L 819.68 292.62 L 820.66 293.40 L 825.98 293.36 L 835.65 295.04 L 840.38 293.63 L 843.91 293.43 L 846.75 293.73 L 847.84 294.89 L 848.77 294.12 L 855.09 294.81 L 858.23 293.45 L 859.82 290.43 L 863.99 286.06 L 863.62 284.19 L 864.60 283.17 L 863.13 282.05 L 864.64 281.12 L 862.20 281.33 L 858.86 280.76 L 856.11 282.19 L 850.04 282.47 L 846.80 281.13 L 842.49 281.05 L 841.56 282.08 L 838.80 282.38 L 834.93 281.05 L 830.57 281.10 L 828.20 278.60 L 825.27 277.20 L 827.22 275.21 L 824.68 273.97 L 829.12 271.48 L 835.28 271.37 L 836.96 269.36 L 844.58 269.71 L 849.39 267.98 L 854.05 267.22 L 860.67 267.17 L 873.39 270.08 L 878.05 269.67 L 881.49 269.91 L 886.22 268.52 L 886.81 267.38 L 885.81 265.53 L 883.50 264.53 L 881.29 264.21 L 874.72 261.03 L 870.16 259.97 L 866.70 258.31 L 869.61 257.85 L 872.93 255.45 L 870.69 254.30 L 876.59 253.11 L 876.49 252.47 L 869.70 253.18 L 867.04 254.12 L 863.29 254.28 L 859.85 255.36 L 860.08 257.15 L 862.04 257.84 L 866.12 257.67 L 865.34 258.68 L 860.96 259.17 L 855.53 260.80 L 853.31 260.23 L 854.19 258.90 L 849.82 258.07 L 854.35 256.57 L 853.19 255.92 L 846.98 255.19 L 846.70 254.10 L 843.00 254.46 L 838.41 258.17 L 838.51 258.90 L 836.57 259.51 L 835.35 259.25 L 834.23 262.62 L 832.16 263.76 L 830.70 265.71 L 832.46 268.29 L 835.95 269.15 L 835.23 269.80 L 830.48 269.95 L 825.43 272.18 L 824.23 270.41 L 819.70 270.09 L 814.86 270.77 L 817.63 272.25 L 815.60 272.68 L 813.37 272.68 L 811.26 271.33 L 810.51 271.91 L 811.40 273.46 L 813.40 274.68 L 811.89 275.24 L 816.10 277.17 L 816.16 278.60 L 812.46 277.93 L 813.64 279.22 L 811.10 279.48 L 812.62 281.69 L 809.96 281.72 L 806.68 280.63 L 804.48 276.94 L 800.87 274.29 L 799.84 272.80 L 797.62 271.92 L 797.28 270.67 L 798.16 268.03 L 795.53 266.52 L 784.06 263.17 L 780.70 261.13 L 781.51 260.92 L 779.68 259.74 L 779.61 258.79 L 777.03 258.34 L 775.81 259.56 L 774.63 258.61 L 774.72 257.63 L 775.75 257.32 L 772.57 256.90 L 769.31 257.92 L 769.05 260.13 L 770.36 261.55 L 774.11 262.95 L 776.12 265.22 L 780.57 267.40 L 783.71 267.38 L 784.68 267.97 L 783.56 268.51 L 790.08 270.27 L 793.92 272.14 L 793.17 273.07 L 790.95 271.85 L 787.48 271.42 L 785.79 273.11 L 788.69 274.07 L 788.21 275.42 L 786.54 275.57 L 784.40 277.76 L 782.74 277.96 L 783.57 275.81 L 784.44 275.26 L 781.65 272.45 L 779.99 272.12 L 778.81 270.99 L 776.24 270.51 L 774.51 269.45 L 771.55 269.27 L 768.43 268.07 L 762.05 264.75 L 760.80 262.03 L 755.56 260.78 L 746.12 264.21 L 738.23 263.47 L 732.40 264.36 L 732.16 267.57 L 728.37 269.35 L 723.24 269.91 L 722.89 270.80 L 720.43 272.25 L 718.89 274.37 L 720.45 275.84 L 718.13 276.98 L 717.27 278.63 L 714.25 279.13 L 711.41 281.06 L 702.52 281.05 L 698.49 282.86 L 696.53 282.66 L 695.05 281.82 L 693.92 280.39 L 690.19 280.00 L 688.58 280.65 L 686.47 280.30 L 684.40 280.57 L 685.02 278.61 L 684.64 277.05 L 682.85 276.81 L 681.89 275.84 L 682.21 274.16 L 683.81 273.22 L 684.93 270.58 L 683.86 267.60 L 684.06 265.67 L 682.43 264.49 L 688.09 262.50 L 702.61 263.46 L 712.39 263.40 L 714.46 261.74 L 715.22 256.11 L 711.10 253.05 L 708.15 251.56 L 702.03 250.42 L 701.63 248.22 L 706.82 247.56 L 713.53 248.34 L 712.27 244.88 L 716.04 246.20 L 725.35 243.79 L 726.56 241.21 L 733.26 239.94 L 735.32 239.05 L 738.82 234.24 L 744.30 232.83 L 747.62 232.93 L 748.40 232.22 L 751.75 232.03 L 752.49 232.78 L 755.20 231.11 L 754.29 229.83 L 754.11 227.86 L 752.48 225.92 L 752.36 222.26 L 754.17 220.17 L 757.70 219.95 L 762.32 217.87 L 762.18 219.78 L 761.00 220.98 L 761.48 222.00 L 763.65 222.55 L 762.67 223.91 L 761.48 223.52 L 758.60 226.09 L 759.69 227.79 L 759.76 229.13 L 763.80 229.94 L 763.76 231.15 L 767.83 230.51 L 770.07 229.57 L 776.48 232.00 L 790.49 228.25 L 794.48 228.84 L 794.79 229.68 L 798.64 229.72 L 799.55 228.20 L 805.07 227.07 L 804.22 224.09 L 804.36 221.37 L 806.33 219.06 L 810.10 217.78 L 813.27 220.56 L 816.48 220.48 L 817.72 215.40 L 816.25 215.88 L 813.71 214.52 L 813.36 212.30 L 823.46 210.63 L 831.92 211.17 L 836.47 208.98 L 832.28 207.06 L 825.02 207.38 L 811.48 209.70 L 809.16 207.51 L 805.29 206.17 L 806.18 202.08 L 804.24 198.22 L 806.14 195.66 L 809.77 192.85 L 821.59 186.84 L 821.18 184.82 L 815.61 182.52 L 808.73 183.90 L 804.85 187.25 L 805.48 190.12 L 791.39 197.60 L 788.48 203.61 L 791.33 206.52 L 795.15 208.76 L 791.48 213.21 L 787.32 214.11 L 785.79 220.43 L 783.52 223.83 L 778.67 223.48 L 776.40 226.30 L 771.77 226.47 L 770.50 223.10 L 767.15 218.95 L 764.11 213.59 L 761.43 211.19 L 753.53 215.67 L 748.20 216.56 L 742.66 214.62 L 741.23 210.43 L 739.97 200.96 L 743.65 198.19 L 754.21 194.49 L 762.11 189.78 L 779.05 173.31 L 796.74 162.20 L 805.51 159.63 L 812.09 159.95 L 818.19 154.96 L 825.48 155.23 L 832.66 154.00 L 845.17 158.45 L 840.02 160.04 L 844.40 163.69 L 848.53 161.69 L 855.10 165.15 L 866.06 166.49 L 881.17 172.67 L 884.24 175.17 L 884.50 178.59 L 880.06 181.23 L 873.53 182.55 L 855.67 178.76 L 852.74 179.40 L 859.26 183.04 L 859.78 190.11 L 868.05 192.70 L 868.57 190.48 L 866.07 188.41 L 868.70 186.69 L 878.37 189.62 L 881.74 188.48 L 879.05 185.00 L 888.37 180.19 L 892.06 180.47 L 895.80 182.21 L 898.13 178.77 L 894.79 175.72 L 896.75 172.57 L 893.81 169.22 L 905.00 170.96 L 907.29 173.95 L 902.22 174.60 L 902.25 177.48 L 905.40 179.22 L 911.58 178.12 L 912.55 174.83 L 934.87 167.64 L 937.89 167.91 L 933.94 171.23 L 938.91 171.79 L 941.77 169.94 L 949.27 169.79 L 955.21 167.51 L 959.77 170.81 L 964.31 167.18 L 960.12 163.91 L 962.20 162.01 L 974.02 163.75 L 994.05 171.81 L 996.72 168.97 L 992.66 166.04 L 992.54 164.84 L 987.72 164.28 L 989.04 161.55 L 986.90 156.92 L 986.78 154.96 L 994.16 149.26 L 996.79 143.25 L 999.76 141.91 L 1010.35 143.71 L 1011.18 147.41 L 1007.39 152.60 L 1009.88 154.59 L 1011.17 158.83 L 1010.26 166.73 L 1014.67 170.11 L 1012.95 173.68 L 1005.12 180.97 L 1009.69 181.70 L 1011.28 179.90 L 1015.68 178.61 L 1016.75 176.07 L 1020.21 173.58 L 1017.88 170.54 L 1019.74 166.91 L 1015.37 166.45 L 1014.41 163.29 L 1017.60 157.38 L 1012.40 152.37 L 1019.56 148.05 L 1018.64 143.33 L 1020.63 143.17 L 1022.73 146.88 L 1021.16 153.06 L 1025.44 154.20 L 1023.61 149.65 L 1030.31 147.10 L 1038.61 146.75 L 1046.00 150.45 L 1042.44 145.01 L 1042.04 137.67 L 1049.00 136.22 L 1067.29 135.60 L 1064.04 131.76 L 1068.67 126.75 L 1073.26 126.54 L 1081.04 122.60 L 1091.60 121.52 L 1092.94 119.27 L 1103.44 118.50 L 1106.71 120.36 L 1115.69 115.91 L 1123.04 116.05 L 1124.14 112.31 L 1127.96 108.51 L 1137.41 104.72 L 1144.27 107.72 L 1138.82 109.95 L 1147.88 111.32 L 1148.96 115.63 L 1152.62 113.53 L 1164.31 113.64 L 1173.33 117.81 L 1176.54 120.92 L 1175.54 125.09 L 1171.12 127.41 Z M 915.43 275.64 L 915.53 276.91 L 916.80 278.78 L 920.59 279.30 L 923.37 280.56 L 929.06 280.99 L 935.30 280.33 L 935.69 279.75 L 934.94 277.96 L 935.52 275.29 L 932.40 274.42 L 933.43 272.64 L 930.78 272.49 L 931.66 270.27 L 935.43 270.92 L 938.95 270.08 L 936.03 268.48 L 934.89 266.94 L 931.67 267.63 L 931.26 269.59 L 929.79 267.20 L 930.77 266.08 L 930.01 265.13 L 925.37 264.20 L 923.57 261.72 L 921.36 261.01 L 921.22 260.10 L 925.11 260.37 L 925.27 258.30 L 928.67 257.84 L 932.16 258.27 L 932.88 255.47 L 932.17 253.67 L 928.17 253.81 L 924.77 253.10 L 916.41 254.99 L 914.58 256.71 L 910.70 257.18 L 906.73 260.10 L 910.36 262.75 L 909.97 264.60 L 918.48 271.07 L 920.34 271.20 L 921.57 271.91 L 918.28 272.12 L 916.89 275.04 L 915.43 275.64 Z M 1207.11 309.67 L 1204.70 313.17 L 1202.99 314.94 L 1200.88 313.11 L 1200.42 311.50 L 1202.78 309.35 L 1205.98 307.68 L 1207.80 308.34 L 1207.11 309.67 Z M 850.93 284.85 L 851.79 284.24 L 854.67 284.28 L 858.31 283.54 L 855.60 284.59 L 856.02 285.24 L 851.92 286.23 L 849.96 285.92 L 849.03 284.94 L 850.93 284.85 Z M 818.90 285.39 L 818.94 284.98 L 814.06 284.51 L 814.80 283.46 L 816.99 284.29 L 823.08 284.32 L 822.98 284.75 L 825.16 284.46 L 824.66 285.18 L 818.90 285.39 Z M 770.28 277.40 L 774.96 277.64 L 782.08 277.14 L 780.64 279.13 L 781.24 279.91 L 780.40 281.19 L 769.72 278.70 L 770.28 277.40 Z M 756.92 268.94 L 755.10 268.39 L 754.18 266.58 L 754.98 265.58 L 757.56 264.54 L 758.24 266.87 L 756.92 268.94 Z M 764.17 226.46 L 763.62 224.99 L 769.48 223.80 L 770.76 225.59 L 768.36 228.43 L 764.17 226.46 Z M 929.78 143.72 L 937.71 137.81 L 934.03 136.94 L 943.61 130.50 L 942.53 127.02 L 951.47 122.85 L 964.68 117.56 L 977.99 115.98 L 984.84 112.77 L 992.63 111.63 L 995.41 115.07 L 992.72 117.72 L 966.33 125.62 L 953.91 132.88 L 941.68 146.41 L 942.49 151.78 L 950.14 156.85 L 934.71 156.59 L 933.65 153.87 L 926.41 152.19 L 925.82 148.74 L 929.91 147.34 L 929.78 143.72 Z M 818.90 103.25 L 809.96 107.07 L 802.90 104.91 L 805.66 102.47 L 803.25 99.37 L 811.54 97.39 L 813.13 101.08 L 818.90 103.25 Z M 775.05 107.66 L 778.68 104.36 L 772.68 101.61 L 764.89 93.17 L 761.78 84.76 L 772.68 80.71 L 774.87 84.67 L 780.57 84.52 L 782.09 80.64 L 787.96 80.24 L 806.18 92.27 L 796.11 96.31 L 793.89 103.50 L 790.38 105.28 L 788.47 112.78 L 783.65 113.12 L 775.05 107.66 Z M 1117.75 102.61 L 1125.06 89.33 L 1128.35 88.12 L 1141.49 94.78 L 1140.30 98.86 L 1117.75 102.61 Z M 1103.76 65.45 L 1111.54 71.89 L 1120.75 83.33 L 1119.76 93.05 L 1111.03 94.34 L 1099.89 91.34 L 1093.25 87.25 L 1090.18 79.16 L 1084.72 76.83 L 1095.11 68.38 L 1103.76 65.45 Z M 789.47 77.09 L 801.82 73.72 L 807.63 76.63 L 811.68 73.00 L 829.63 80.18 L 823.70 86.25 L 812.10 87.54 L 800.30 85.71 L 799.59 82.63 L 793.85 82.43 L 789.47 77.09 Z M 899.39 73.83 L 913.27 71.43 L 914.09 74.74 L 920.16 69.73 L 926.09 72.47 L 910.34 80.71 L 906.01 77.94 L 908.29 74.20 L 899.39 73.83 Z M 1410.84 456.46 L 1412.32 457.79 L 1409.23 457.82 L 1405.81 458.87 L 1402.47 463.59 L 1397.33 465.71 L 1393.65 465.65 L 1391.05 464.69 L 1386.71 464.49 L 1386.04 463.43 L 1388.19 461.31 L 1393.22 458.54 L 1395.80 458.02 L 1402.10 455.52 L 1404.50 454.11 L 1406.28 452.10 L 1407.79 451.42 L 1408.39 449.94 L 1411.19 448.72 L 1412.99 450.94 L 1415.83 449.86 L 1416.99 450.98 L 1416.99 452.11 L 1410.84 456.46 Z M 1311.66 456.02 L 1310.26 455.27 L 1307.48 457.18 L 1304.19 456.95 L 1301.73 454.60 L 1301.18 452.81 L 1298.87 450.48 L 1298.98 449.27 L 1305.46 450.42 L 1310.76 449.55 L 1313.16 449.72 L 1313.44 452.89 L 1312.07 453.82 L 1311.66 456.02 Z M 1432.04 441.21 L 1434.07 441.50 L 1431.88 445.26 L 1428.83 445.21 L 1427.76 445.99 L 1428.13 447.11 L 1424.05 450.82 L 1420.96 451.89 L 1420.27 451.19 L 1418.60 450.80 L 1420.91 448.63 L 1419.60 447.19 L 1415.30 446.15 L 1415.41 445.21 L 1418.30 444.31 L 1418.97 442.35 L 1418.79 440.71 L 1417.28 438.59 L 1412.22 435.39 L 1410.54 433.66 L 1412.03 433.47 L 1414.21 434.82 L 1417.32 435.46 L 1418.45 437.65 L 1421.35 440.28 L 1421.43 438.57 L 1423.24 439.25 L 1423.83 441.15 L 1427.05 441.97 L 1429.76 442.18 L 1432.04 441.21 Z M 1302.55 394.06 L 1303.56 394.32 L 1304.64 396.11 L 1304.25 397.20 L 1305.55 398.63 L 1315.39 401.67 L 1314.87 402.19 L 1317.16 403.53 L 1318.71 405.86 L 1320.31 405.39 L 1321.93 406.32 L 1322.91 405.99 L 1323.60 408.29 L 1331.42 412.26 L 1332.54 414.04 L 1332.37 416.70 L 1334.28 418.62 L 1334.05 420.64 L 1332.28 423.76 L 1331.57 426.77 L 1329.80 428.91 L 1326.84 430.08 L 1322.86 435.23 L 1321.31 436.46 L 1320.30 438.31 L 1319.99 440.82 L 1317.70 441.70 L 1313.22 441.79 L 1309.53 442.83 L 1305.27 444.92 L 1299.51 443.34 L 1300.13 442.01 L 1297.94 442.49 L 1294.44 444.34 L 1282.55 442.32 L 1279.97 440.77 L 1278.30 437.61 L 1276.33 436.61 L 1272.48 436.31 L 1273.80 435.12 L 1272.83 433.31 L 1270.88 435.00 L 1267.32 435.45 L 1269.41 434.10 L 1270.02 432.70 L 1271.56 431.52 L 1271.24 429.75 L 1267.99 431.79 L 1265.49 432.61 L 1263.96 434.54 L 1260.83 433.54 L 1260.96 432.26 L 1256.34 429.62 L 1257.10 429.07 L 1251.96 427.64 L 1249.15 427.57 L 1245.31 426.43 L 1238.14 426.65 L 1228.41 428.28 L 1224.59 428.12 L 1216.89 429.89 L 1216.12 431.14 L 1214.64 432.12 L 1208.73 432.39 L 1205.20 431.95 L 1199.57 432.32 L 1197.20 433.62 L 1196.03 433.51 L 1192.10 434.97 L 1186.50 434.87 L 1180.11 432.86 L 1180.19 431.48 L 1182.18 431.15 L 1182.86 430.60 L 1183.21 428.10 L 1182.76 426.70 L 1179.99 423.02 L 1180.16 421.70 L 1178.47 419.54 L 1176.69 418.64 L 1176.20 416.87 L 1173.36 414.14 L 1175.11 415.11 L 1173.76 413.04 L 1175.75 413.68 L 1176.93 414.55 L 1176.86 413.41 L 1173.57 410.31 L 1175.37 407.42 L 1174.95 406.15 L 1176.60 404.60 L 1176.90 406.24 L 1178.59 404.76 L 1186.85 402.33 L 1188.67 402.17 L 1189.77 402.43 L 1195.34 401.40 L 1197.01 400.74 L 1199.22 400.79 L 1203.42 400.17 L 1208.97 397.02 L 1209.25 395.04 L 1212.05 393.27 L 1213.74 395.07 L 1215.44 394.65 L 1214.01 393.67 L 1215.27 392.66 L 1217.03 393.11 L 1217.52 391.52 L 1220.67 389.69 L 1222.68 389.34 L 1222.74 388.76 L 1224.50 389.00 L 1224.57 388.48 L 1228.26 387.91 L 1231.22 388.85 L 1233.44 390.08 L 1238.49 390.29 L 1237.64 389.15 L 1239.55 387.50 L 1241.36 386.96 L 1240.73 386.45 L 1242.47 385.28 L 1244.89 384.55 L 1246.94 384.80 L 1250.30 384.41 L 1250.23 383.37 L 1247.30 382.69 L 1249.43 382.40 L 1252.08 382.90 L 1254.20 383.74 L 1257.57 384.26 L 1258.71 384.06 L 1261.19 384.69 L 1263.53 384.10 L 1265.03 384.28 L 1265.97 383.89 L 1267.81 384.90 L 1265.22 386.82 L 1263.85 386.89 L 1264.31 387.71 L 1261.71 389.76 L 1262.00 390.34 L 1268.26 392.16 L 1273.21 394.11 L 1276.43 394.64 L 1277.04 395.29 L 1280.86 396.00 L 1283.50 395.28 L 1285.10 393.23 L 1286.81 390.44 L 1286.08 387.66 L 1286.60 386.11 L 1287.37 385.70 L 1286.75 385.01 L 1288.57 382.22 L 1290.06 381.46 L 1291.19 382.46 L 1291.47 383.74 L 1292.46 383.98 L 1292.63 384.84 L 1294.09 385.89 L 1294.25 387.80 L 1295.69 389.41 L 1298.25 388.64 L 1301.50 390.32 L 1301.09 391.24 L 1302.55 394.06 Z M 1377.84 401.09 L 1380.08 401.82 L 1388.48 405.47 L 1386.96 405.99 L 1381.90 404.43 L 1376.67 401.79 L 1376.12 401.06 L 1377.84 401.09 Z M 1432.50 395.57 L 1433.49 395.22 L 1434.87 395.83 L 1434.21 396.92 L 1431.73 397.21 L 1429.53 396.95 L 1429.14 396.03 L 1430.68 395.31 L 1432.50 395.57 Z M 1437.46 394.09 L 1434.90 394.54 L 1434.39 393.76 L 1440.00 392.56 L 1440.00 393.58 L 1437.46 394.09 Z M 1388.87 392.20 L 1391.38 393.40 L 1390.06 393.67 L 1388.72 392.76 L 1388.87 392.20 Z M 1389.08 391.88 L 1387.17 391.74 L 1386.52 389.58 L 1388.43 390.21 L 1389.08 391.88 Z M 1366.80 381.77 L 1365.28 380.52 L 1368.48 381.08 L 1369.59 381.78 L 1366.80 381.77 Z M 1363.41 379.84 L 1359.40 379.68 L 1358.56 379.37 L 1358.81 378.57 L 1361.45 378.89 L 1363.41 379.84 Z M 1223.79 376.93 L 1227.83 376.60 L 1229.34 376.86 L 1220.35 378.87 L 1217.74 380.39 L 1214.32 380.83 L 1213.84 380.59 L 1215.92 378.66 L 1219.87 377.86 L 1220.34 377.38 L 1223.79 376.93 Z M 1366.12 379.66 L 1363.15 377.91 L 1362.32 376.70 L 1363.68 376.70 L 1366.72 379.29 L 1366.12 379.66 Z M 1358.56 376.09 L 1359.67 377.14 L 1352.84 374.89 L 1353.44 374.68 L 1358.56 376.09 Z M 1349.36 374.85 L 1345.97 373.56 L 1346.17 373.23 L 1350.15 374.74 L 1349.36 374.85 Z M 1256.84 373.82 L 1256.45 372.31 L 1258.00 370.91 L 1258.91 371.49 L 1258.90 372.45 L 1256.84 373.82 Z M 1340.25 371.15 L 1344.08 373.11 L 1343.52 373.67 L 1342.40 373.87 L 1340.67 373.10 L 1338.92 371.82 L 1338.06 370.29 L 1338.61 370.10 L 1340.25 371.15 Z M 1279.71 364.82 L 1284.00 365.20 L 1298.34 367.73 L 1303.32 369.76 L 1303.93 370.95 L 1310.59 372.19 L 1311.56 373.26 L 1307.88 373.47 L 1308.77 374.82 L 1312.34 376.14 L 1314.94 378.29 L 1317.23 378.22 L 1317.07 379.12 L 1320.15 379.46 L 1318.96 379.84 L 1323.21 380.70 L 1322.76 381.29 L 1320.11 381.43 L 1319.13 380.90 L 1311.65 380.37 L 1306.27 377.96 L 1304.19 376.19 L 1298.98 375.31 L 1293.15 376.55 L 1293.66 378.04 L 1290.51 378.74 L 1284.14 378.31 L 1280.57 376.65 L 1276.51 376.25 L 1275.53 376.82 L 1270.46 376.88 L 1272.16 375.24 L 1274.67 374.68 L 1273.63 372.49 L 1271.71 370.80 L 1263.96 369.10 L 1260.66 368.93 L 1254.65 367.08 L 1253.47 368.06 L 1251.94 368.23 L 1251.03 367.50 L 1251.02 366.63 L 1247.96 365.64 L 1252.27 364.92 L 1255.12 364.96 L 1254.78 364.43 L 1248.93 364.43 L 1247.34 363.23 L 1243.77 362.87 L 1242.08 361.88 L 1247.47 361.39 L 1249.52 360.74 L 1255.94 361.56 L 1257.69 365.54 L 1261.83 366.74 L 1265.17 364.62 L 1269.76 363.41 L 1273.32 363.41 L 1279.71 364.82 Z M 1313.28 371.51 L 1313.61 370.89 L 1317.19 371.19 L 1319.38 371.03 L 1319.99 370.07 L 1320.56 370.02 L 1320.95 371.08 L 1323.23 370.93 L 1326.59 369.53 L 1326.15 368.34 L 1328.55 368.30 L 1329.35 368.63 L 1329.27 369.75 L 1327.93 370.97 L 1325.84 371.14 L 1325.21 371.70 L 1320.96 372.66 L 1318.84 372.66 L 1313.28 371.51 Z M 1323.76 365.00 L 1328.96 366.48 L 1332.08 367.97 L 1332.56 369.01 L 1331.31 369.54 L 1329.62 367.59 L 1325.54 366.07 L 1322.65 365.49 L 1323.76 365.00 Z M 1224.74 367.22 L 1223.96 366.36 L 1228.00 366.26 L 1229.00 366.92 L 1227.50 367.59 L 1224.74 367.22 Z M 1237.48 365.61 L 1241.89 366.19 L 1243.34 367.72 L 1239.96 366.90 L 1231.60 366.79 L 1232.54 365.69 L 1237.48 365.61 Z M 1229.60 357.98 L 1230.40 356.38 L 1231.73 355.65 L 1232.02 356.74 L 1234.38 356.92 L 1234.54 359.48 L 1232.48 359.29 L 1231.87 360.50 L 1233.52 361.56 L 1232.40 361.80 L 1230.79 360.53 L 1229.60 357.98 Z M 1249.48 288.91 L 1251.70 287.47 L 1253.97 287.75 L 1255.62 286.74 L 1258.55 287.26 L 1259.07 288.08 L 1256.81 289.54 L 1255.17 288.77 L 1253.12 289.32 L 1252.06 290.72 L 1249.45 290.04 L 1249.48 288.91 Z M 1260.48 287.98 L 1260.32 286.17 L 1253.36 286.71 L 1248.63 287.85 L 1243.94 287.89 L 1248.00 289.66 L 1245.33 293.68 L 1242.75 294.66 L 1240.81 293.75 L 1241.79 291.63 L 1239.26 290.94 L 1237.63 289.31 L 1241.42 288.57 L 1243.51 287.06 L 1247.54 285.80 L 1250.47 284.13 L 1258.43 283.40 L 1262.71 283.90 L 1266.90 279.48 L 1269.56 280.68 L 1277.71 277.18 L 1280.22 274.04 L 1279.53 271.10 L 1281.22 269.43 L 1285.48 268.94 L 1287.66 272.60 L 1287.54 274.70 L 1283.84 277.28 L 1283.91 279.89 L 1282.40 281.88 L 1283.10 283.12 L 1281.01 284.85 L 1275.90 286.00 L 1268.87 286.15 L 1263.17 288.90 L 1260.48 287.98 Z M 1284.27 268.39 L 1279.82 268.43 L 1279.27 265.75 L 1281.25 263.65 L 1285.52 263.50 L 1287.87 257.43 L 1292.57 260.38 L 1295.64 261.32 L 1298.45 261.91 L 1301.28 260.73 L 1302.17 263.85 L 1296.24 264.60 L 1292.74 267.29 L 1286.45 265.44 L 1284.27 268.39 Z M 1288.37 256.24 L 1287.63 253.81 L 1288.07 250.94 L 1287.62 247.69 L 1288.54 245.38 L 1288.72 241.19 L 1286.38 238.04 L 1286.73 233.53 L 1290.43 231.99 L 1288.84 230.41 L 1290.62 229.93 L 1293.04 235.40 L 1292.94 238.62 L 1298.62 247.34 L 1292.70 246.33 L 1290.23 250.70 L 1294.13 253.72 L 1294.02 255.75 L 1290.99 254.00 L 1288.37 256.24 Z M 1440.00 151.93 L 1440.00 156.17 L 1435.61 156.48 L 1434.90 154.53 L 1440.00 151.93 Z M 1294.42 140.72 L 1288.35 140.77 L 1279.45 139.63 L 1283.25 136.83 L 1288.25 136.17 L 1293.93 138.89 L 1294.42 140.72 Z M 1318.30 130.04 L 1311.91 129.36 L 1304.48 126.31 L 1305.43 123.75 L 1322.93 127.00 L 1318.30 130.04 Z M 1285.89 118.89 L 1300.35 123.23 L 1297.20 129.04 L 1282.46 128.83 L 1275.82 130.62 L 1267.90 125.62 L 1270.05 120.08 L 1275.32 118.53 L 1285.89 118.89 Z"/>
  <text class="region-label" x="288.00" y="253.24">North America</text> <text class="region-label" x="480.00" y="396.61">South America</text> <text class="region-label" x="768.00" y="237.83">Europe</text> <text class="region-label" x="792.00" y="343.95">Africa</text> <text class="region-label" x="1088.00" y="277.72">Asia</text> <text class="region-label" x="1272.00" y="407.29">Oceania</text>
</svg>
